<svg xmlns="http://www.w3.org/2000/svg" width="1469.333" height="1706.667" version="1.0" viewBox="0 0 1102 1280"><path d="M129 2.4C79.5 17.3 48 40.9 31.4 75.5 8.8 122.4 18.7 178.2 60.5 241c12.1 18.2 23.8 32.3 42 50.9 27.5 28 54.9 51.1 93.5 78.6l9.5 6.7-8.5-.6c-25.3-1.9-53.7-7.8-68-14-9.9-4.3-15.1-7.9-27-18.6-11.9-10.9-16.3-13.7-38.1-24.2-19.9-9.6-29.6-15.5-38.7-23.7C12.7 285.1 7.5 281 5.8 281c-1 0-2.5 1.5-3.5 3.2-2.7 5-2.5 32.7.4 46 5.3 24.2 13.1 32.4 44 45.8 39.1 16.9 55.6 27.7 61.9 40.6 2.3 4.7 2.6 6.4 2.2 11.7-.7 8.1-3 12.5-17.1 32.5-6.4 9-14.2 20.9-17.5 26.5C20 583.7 6.1 708.1 39.6 814.5c27.8 88.4 85.8 167.3 181.9 247.6 49.9 41.6 120.8 89.8 208.5 141.4 10.2 6 31.3 19.2 47 29.4 35 22.6 66.1 42.1 71.8 45l4.2 2.1 3.9-1.9c3.8-2 56.6-37 115.6-76.8 17.1-11.5 40.9-26.9 53-34.3 168.4-102.4 261.9-189.9 313.5-293.2 31.2-62.6 45-129.7 41.1-199.7-2.4-42-8.8-76.1-21.2-113.4-12.2-36.5-30.5-72.9-49.2-97.9-14.4-19.4-18.7-27.6-18.7-36.1 0-7.5 1.8-11.5 8-18.1 9.4-9.9 22.3-17.5 52-30.6 21.8-9.6 31.1-15 36.8-21.5 8.5-9.7 12.8-24.4 13.8-47.5.7-14.2-.5-24.3-3-26.8-2.2-2.2-4.9-.7-16.3 9.4-14.5 12.7-21.1 17-43.1 27.6-23.1 11.3-26.4 13.3-39.2 24.8-12.4 11.1-19.7 16-29.9 19.9-16.3 6.3-34 9.5-74.1 13.6-44.4 4.5-61.8 8-85.3 17.4-11.8 4.7-20.4 9.3-32.3 17.2-16.8 11.2-32.1 27.3-62.9 65.9-30 37.5-39.6 48.5-50 56.9-13 10.4-25.6 16.5-56 27.1-20.4 7.1-23.8 8.8-25.5 13.1-2.6 6.2 3.7 18.6 15.5 30.5 19.6 20 42.7 26.9 94 28.1 45.1 1.1 70.4-2.2 128-16.2 32.9-8.1 35.1-8.5 41.9-8.5 12.1 0 17.3 3.2 40.2 24.3 48.3 44.7 67.5 75.5 69.1 111.2 1.9 40.5-14.1 88.5-45.4 136-23.9 36.3-60.3 79.3-95 112.1-46.6 44.1-93.6 83.7-144.8 122-11 8.2-32.8 24.6-48.5 36.5-26.5 20.1-88 65.6-90.7 67.2-1.3.8-20.3-13-87.3-63.3-131.9-99.1-204-162.5-257.6-226.5-53.7-64-81.3-124.6-81.4-178.1 0-22.5 10-50.3 27.8-76.9 22-33 49-54.8 76.1-61.6 12.8-3.2 22.7-2.4 48.6 4 61.8 15.3 78.2 17.6 124.5 17.6 25.7-.1 34.9-.4 44-1.8 30.3-4.6 47.4-12.4 61.4-27.9 10.7-11.8 16-23 13.6-28.7-1.7-4.3-5.1-6-25.5-13.1-48.1-16.7-57.9-23.9-92.3-67-32.1-40.2-38.5-48-44.1-54.2-7.4-8-8.8-7.2 15.4-8.8 48.9-3.2 79.4-11.6 103.5-28.5 21.8-15.3 30.9-33.9 28-57-1.6-12.2-9-35.2-12-37-1.3-.8-1.5.1-2.9 10.8-2.1 16.2-8.2 29.4-18.5 40.5-12.1 12.9-27.2 22-49.4 29.6-18.2 6.3-18.6 5.8-13.8-13.6 1.9-7.9 5.2-21.5 7.2-30.3 8.5-37.6 19.4-60.5 37.4-78.6 8.5-8.6 16.8-14.5 27.3-19.5 12.5-5.9 18.1-6.9 37.5-6.9h17.4l-3.5-3c-9.7-8.4-31.1-17.9-45.5-20.3-8.4-1.4-10.1-1.4-18.3 0-25.3 4.5-49.9 25.7-67.6 58.3-9.6 17.8-15.1 31.9-25.9 67-3.6 11.5-8 24.3-9.9 28.3-6.4 13.5-18 22.9-32.4 26.2-11 2.6-30.8.1-47.1-5.8-29.2-10.6-61.1-34.5-69.2-51.8-2.6-5.7-3.2-8.1-3.5-16.3-.4-8.4-.1-11.1 2.7-21.6 3.9-15.3 9.4-26.7 16.4-34.2 10.3-11.1 19.8-14.3 61.1-20.3 29.6-4.4 49.8-8.4 60.5-12 25.1-8.6 37-23.4 37-45.8 0-9.6-1.2-9.5-6.5.7-5.1 9.9-9.1 13.9-18 18.4-12.2 6-26 8-55.5 8-18.2 0-23.2-.3-26.2-1.6-2.1-.9-3.8-2.2-3.8-2.9 0-2.2 3.3-6.8 11.6-16.3 10.8-12.4 14.8-18 19-26.9 6.5-13.6 5.8-27.3-1.9-42.1-4.7-9-21.4-25.2-36.2-35.2-12.3-8.2-22-13.7-23.5-13.1-.5.2 3 5 7.6 10.6 14.4 17.8 20.1 29.4 21.1 43.5 1.1 14.5-4.2 26.4-16.8 38.2-3.6 3.3-12.5 10.9-19.9 17-32.7 26.6-42.5 42.5-48.5 78.5-3.7 22.7-6.5 30.1-12 32.7-9.2 4.4-24.3-7.2-33.8-26-6-12-10-26-18.6-64-11.3-49.7-11.6-51.5-11.5-69.7.1-17.5 1.8-26.1 7.8-38.5 6.3-13.3 13.6-21.3 33.8-36.8 13.5-10.4 14.3-11.7 7.9-11.7-8.5 0-33.2 9.6-45 17.4-24.6 16.4-34.1 40.4-32.8 83.1.7 23.1 3.1 34.9 13.2 64.1 6.8 19.7 8.5 26.4 7 26.4-6.5 0-32.2-39.4-44.3-68-16.7-39.2-14.2-72.9 7.9-105.6 12.1-18 28.6-35.5 46.5-49.4C142.4 1.1 143.6-.1 138.8.1c-1.3 0-5.7 1.1-9.8 2.3z"/></svg>