<svg xmlns="http://www.w3.org/2000/svg" width="1706.667" height="853.333" version="1.0" viewBox="0 0 1280 640"><g fill="#ff5722"><path d="M581.9 188.9c-18.2 5.8-26.5 20.7-28.4 51.1-1.2 17.7 1.9 31.2 11 48.8 9.9 19.2 20.8 33.6 41.4 54.4 8 8.2 14.1 14.8 13.7 14.8-.5 0 .4 1 2 2.2 1.6 1.2 4.9 4 7.4 6.2 4.7 4.3 3.2 2.1-3.6-5.4-26.2-28.6-36.9-43-47.2-63.6-8-16-9.5-21.4-10-36.9-.7-23.7 3.4-39.5 12.5-47.4 5.1-4.6 11.4-6.6 20.5-6.5 5.6 0 7.8.6 14 3.6 4 2 10.2 6 13.7 8.8 8.3 6.8 11.1 7 17.7 1.2 6.7-6 14.9-10.7 21.8-12.7 5.1-1.5 7-1.6 12.8-.6 12.3 2 19.3 6.9 24.3 16.8 5.6 11.4 7.3 34.9 3.5 49.9-5.4 21.2-27.9 56.3-54.8 85.6-12.6 13.7-9.5 11.3 7.4-5.7 20-20.1 30.7-32.7 41.7-49 18.2-27.2 24.4-47.6 21.8-72-2.5-23.7-12.4-38.1-30-43.6-7.6-2.3-20.5-2.5-27.4-.4-8.2 2.5-18.1 8.3-23.7 14l-5.4 5.4-5.5-5.2c-6.7-6.4-12.8-10.1-21.9-13.3-8.4-3-20.9-3.2-29.3-.5zm22.4 5.6c5.8 1.5 15.6 6 19.2 8.9 1.1.9-1.1.1-5-1.6-6.5-3.1-7.8-3.3-17.5-3.3-9.9 0-11 .2-17.2 3.3-7.8 3.8-12.1 8.4-15.8 16.7-4.7 10.4-5.5 15.6-5.5 35 0 16.9.2 18.4 2.6 25 4.1 10.8 4.2 11.3 1.5 6.3-1.4-2.6-3.8-8.2-5.3-12.5-2.5-7.3-2.7-8.9-2.6-23.8.1-23.3 3.4-36.1 11.7-45.3 7.7-8.5 21.3-12 33.9-8.7zm90.4 1c14.4 4.3 22.7 17 25.4 38.7 2 16-.3 31.8-6.6 45-1.4 2.9-2.2 4.4-1.9 3.3 4-12.3 5.4-20.4 5.4-31.4-.1-26.1-7.6-41.7-23.8-49.4-11.7-5.5-27.1-4.7-39.2 2-3.5 1.9-3.9 2-2 .4 3.9-3.2 14.5-8.2 20.2-9.7 6-1.5 15.1-1.1 22.5 1.1zm-52.2 16c-1.6 1.4-3 3.2-3 4.2 0 .9-.6 1.8-1.4 2.1-1 .3-1.2 0-.8-1.2.5-1.1-.2-2.5-2.1-4.2l-2.7-2.4 3.1 1.7c3 1.6 3.2 1.6 6-.5 4-2.9 4.6-2.7.9.3zM67.5 255c-18.4 2.2-32.1 8.5-43.6 19.9-16 16-22.8 35.7-23.4 68.1l-.3 16.5.8-16c.4-8.8 1.6-19.8 2.5-24.4 5.2-26.4 17.7-44.7 36.8-54.1 11.3-5.5 18.1-7.1 33-7.7 19.2-.8 36.2 1.9 59.7 9.5l11.5 3.7-14.5.7c-13.8.6-21.7 2-29.4 5.2-2.7 1.1-6.5 1.3-16.8.9-23-1-37.2 3.9-50.3 17.1-8.2 8.3-11.8 14.5-14.5 25.2-2.5 9.7-2.7 28.8-.5 38.3 4.9 20.8 20 35.5 42 40.9 11.4 2.8 15.9 3.3 30.8 3.4 10.4 0 14.9.4 21.2 2.1 7.1 2 10.5 2.2 30.5 2.2 16.8 0 25.4-.5 34-1.8 10.7-1.7 34.5-6.2 38-7.3 1.3-.3 2.1 1.7 3.9 9.6 4.6 20.4 15 35.8 28.8 42.3 7.3 3.4 7 3.4 38.3 3h20.5c24.4 0 39.1-6.1 45.1-18.8 6.4-13.6-1.4-34.7-21.5-57.9-2.3-2.6-4.1-5.1-4.1-5.5 0-.4 2.1-1.3 4.8-1.9 2.6-.6 15-3.6 27.6-6.6 122.5-29.6 198.1-29.9 255.3-1.1 7.1 3.6 11.7 5.6 10.3 4.4-4.5-3.6-26.2-13.7-38.3-17.8-25.1-8.6-50.2-12.1-86.2-12.1-23.6 0-45 1.4-67.6 4.5-26.9 3.7-74.2 12.7-105 19.9l-9.6 2.3-2.7-2.4c-3.1-2.6-3.5-2.4 7.9-5.2 57-14.2 108.1-22.6 152-25.2 45.9-2.6 94.5 4.3 117.3 16.7 3.5 1.9 6.1 3 5.7 2.4-1.2-1.9 1-1 9 3.6 11.9 6.8 11.8 6.7 11.1 5.5-.4-.6-3.7-2.7-7.4-4.7s-8.9-5.1-11.7-6.7c-2.7-1.7-5.9-3.1-7.1-3.3-1.1-.1-4.9-1.6-8.3-3.3-3.5-1.7-6.6-2.9-7-2.6-.4.2-4.1-.7-8.2-1.9-9.4-3-23.9-6-39.9-8.3-17.4-2.5-71.4-2.4-94.5 0-32.5 3.5-72.6 10.3-111.3 18.8-10 2.2-18.8 3.7-19.5 3.3-.6-.5-4.6-3.5-8.7-6.9-13.5-11-14.6-11.7-15.9-10.1-1 1.2.7 2.9 9.3 9.8 5.8 4.5 10.6 8.5 10.6 8.8 0 .3-3.6 1.3-8.1 2.3l-8 1.8-4.9-4.3c-2.6-2.4-4.8-4.9-4.9-5.6-.1-.7 1-3.4 2.3-6.1 1.9-3.6 2.2-5.1 1.3-6-1.8-1.8-2.6-1.3-5.2 4l-2.6 5-3.7-3.1c-2-1.6-8.3-6.5-13.9-10.8-5.6-4.2-10.2-8.2-10.2-8.8-.1-1.4 3.7-6.4 4.8-6.4.5 0 7 4.1 14.6 9.1 9.2 6.1 14 8.8 14.7 8.1.6-.6.7-1.5.4-2-.3-.6-6.7-5-14.1-9.8-7.4-4.8-13.5-9.1-13.5-9.5 0-.5 3.9-4.9 8.7-9.7 40.4-40.7 106-48.8 189.8-23.5 39.2 11.8 91.3 35.6 138.3 63 2.3 1.4 4.2 2.3 4.2 2 0-.3-5.7-3.8-12.7-7.9-62.3-36.5-119-59.8-170.3-70.2-21.2-4.3-54.7-5.9-72.7-3.6-34.1 4.5-60.4 17-81.1 38.4l-9.3 9.6-10.2-5.5c-18.9-10.1-44-19.9-62.2-24.5-4.9-1.2-14-4.2-20.2-6.6-28.5-11.2-61-16.9-81.8-14.4zm81.6 19.4c13.4 2.2 39.9 15.6 69.7 35.3 13.4 8.8 16.2 10 16.2 6.9 0-2.2-30.2-21.2-48.2-30.2-5-2.5-8.8-4.7-8.5-5 1.5-1.5 46.4 18.1 58.5 25.6l3.3 2-2 2.9c-2.5 3.5-2.6 4.7-.6 5.5 1.7.6 1.9 1.5.5 3.6-.7 1.2-1.2 1.2-2.2.2-.6-.6-1.6-1.2-2-1.2-1.4 0-8.5 15.4-11.6 25.2-1.7 5.3-3.6 13-4.2 17.1l-1.2 7.4-16.2 3.6c-34 7.8-60.8 12.7-81.6 15.1-12 1.4-12.7 1.4-16.7-.5-4.1-2-12-9.6-14.1-13.6-1.1-2-.8-2.1 4.6-2.8 3.1-.3 8.3-1.3 11.5-2.1l5.8-1.5 4.1 3.5c14.7 12.7 45.1 8.5 61.2-8.3 3.4-3.6 7-8.8 8.9-12.8 2.8-6 3.2-7.8 3.2-15.3 0-7.6-.3-9.2-3.3-15.2-7.6-15.5-27.6-26.7-51.2-28.5-7.3-.5-9.5-1.2-15.8-4.6-4.1-2.2-9.9-4.8-13-5.8l-5.7-1.7 3.5-1.5c10.5-4.5 31-5.9 47.1-3.3zM84 285.7c0 .3-2.2 2.9-4.8 5.7-2.7 2.8-5.9 6.9-7.2 9.1-1.2 2.2-4 5.2-6.2 6.8-8.8 6.2-13.2 17.7-12.6 32.6.3 8.3.8 10.4 3.4 15.6 1.7 3.3 2.9 6.7 2.7 7.5-.4 1.3-.3 1.3.5.1s1.6-.9 4.4 1.4c1.8 1.5 4.7 3.4 6.5 4.1 2.3 1 3.8 2.8 5.8 7.1 1.4 3.1 3.6 7.1 4.9 8.8 4.5 6 4.7 5.9-4.4 5.1-31.8-2.8-47.5-17.9-49.7-47.6-2-29 13.8-50.6 40.8-55.5 8.1-1.4 15.9-1.9 15.9-.8zm13.6 1.8c8 1.9 14.7 4.6 13.7 5.5-.4.4-3.1 1.5-6 2.4-2.8.9-7.6 3.5-10.8 5.7-5.5 3.8-5.7 3.9-10.1 2.8-2.4-.6-6.3-.9-8.4-.6-2.2.3-4 .3-4 0 0-1.2 4.7-7.2 9.4-12.1 5.6-5.8 6.5-6 16.2-3.7zm30.8 16.8c2 2.4 4.2 6 5 7.9l1.5 3.6-6.9.4c-9.4.5-14.2 3.8-18.9 13.1-3 5.9-3.5 8-3.9 15.7-.3 6.3 0 10.2 1.1 13.3 1.5 4.4 1.5 4.5-.8 5.5-3.6 1.7-13.7 3.4-17.5 3-3.4-.3-3.5-.5-4.7-5.8-3-14.4-.7-31 5.6-40.7 6.9-10.6 9.5-11.5 11.2-3.6.8 3.8.8 3.8.5.3-.2-1.9-.7-4.5-1.1-5.7-.6-1.8.1-2.6 4.2-4.9 4.4-2.6 15.4-6.2 19.5-6.3.9-.1 3.3 1.8 5.2 4.2zm23.9-.7c12.9 4.3 22 11.3 26.3 20.3 1 2 2 6.7 2.2 10.6.5 9.8-2.2 16.7-9.9 24.9C161 370 149 374.6 133 373.8c-7.1-.3-9.4-.9-13.3-3.1-2.5-1.5-4.8-3.1-5.2-3.6-.3-.5 1.8-2.4 4.7-4.1 12.4-7.7 21-20.4 23.1-34.4 1.1-7 1.4-7.6 2.9-6.4 1 .7 2.2 2.4 2.7 3.8.9 2.4 1 2.4 1 .3.1-1.4-1.2-3.3-3.4-5-1.9-1.5-3.5-3.7-3.5-4.8 0-1.1-1.4-4.9-3.2-8.5-1.8-3.6-3.4-6.9-3.6-7.4-.7-1.3 9.7.4 17.1 3zm-66.6 2.2c.9.5.2 2.1-2.4 5.2-9 11.2-13.4 28.1-11.6 44.5.5 4.9.8 9.1.7 9.3-.5.8-5.1-2.2-8.6-5.6-3.4-3.2-3.8-4.2-3.9-8.7-.2-4.6-.2-4.7-.8-1.5l-.6 3.5-1.4-4.7c-.9-3.1-1.2-8-.9-14.1.4-10.2 3.3-18 8.3-22.7 3-2.8 3.1-2.1.6 4.6-2.3 5.9-5.1 20.2-5 24.8.1 1.7.7-.7 1.4-5.4 1.8-11.5 6.1-24.7 9-27.6 2-2 3.4-2.4 8.2-2.4 3.2 0 6.3.4 7 .8zm47.3 11.9 3.3.6-.5 8.1c-.6 8.6-3.1 15.2-8.7 22.5-2.9 3.8-13.6 12.1-15.6 12.1-2.1 0-3.8-9.4-3.3-18 1-17.2 11.6-28 24.8-25.3zM248.4 331c5.5 4.4 11.7 9.5 13.7 11.3l3.7 3.2-2.1 6.7-2.1 6.7-19.1 4.6c-10.4 2.5-19.3 4.5-19.6 4.5-1.1 0 2.1-15.1 5.1-24.2 2.9-8.8 8.5-20.8 9.6-20.8.4 0 5.2 3.6 10.8 8zm24.9 21.8 2.7 2.9-4.5 1c-2.5.6-4.5.7-4.5.3 0-1.6 2.2-7 2.9-7 .4 0 1.9 1.3 3.4 2.8zm36.6 7.6 2.2 2.3-9.2 2.3-9.2 2.3-1.8-2.4c-2-2.7-2.4-2.4 7.1-5 8.5-2.3 8.3-2.3 10.9.5zm-23.4 5.6c1 1.1 1.6 2.2 1.4 2.4-.5.4-22.2 5.6-23.6 5.6-.6 0-.8-1.1-.5-2.5.4-2.6.6-2.7 14.2-6.4 5.3-1.4 6.5-1.3 8.5.9zm-28.2 9.1c-1 1-35.5 8.8-36.6 8.2-.4-.2-.3-1.2.2-2.1.6-1 7-3.2 18.7-6.2 17-4.4 17.9-4.6 18.2-2.7.2 1.1 0 2.3-.5 2.8zm66.7 1.6c14.3 15.6 24 34.1 24 45.5 0 15.5-12.6 23.8-38.5 25.3l-10 .6 4.3-2.4c6.5-3.5 12.9-10.2 14.6-15.5 4.2-12.2.6-26.3-11.1-44-3.2-4.8-5.8-9.1-5.8-9.6 0-.8 13.2-5.1 16.6-5.5.4-.1 3.1 2.5 5.9 5.6zm-23.1 8.7c13.9 20.2 17.5 37.2 10.1 47.5-3.5 4.8-11.5 9.6-18.6 11.2-5.1 1.1-5.3 1.1-9.7-2.1-12.4-8.8-21.5-31.1-20.5-49.9l.3-6.4 16-4.2c8.8-2.3 16.3-4 16.6-3.9.3.2 2.9 3.7 5.8 7.8zm-86.3-.7c-1.2 1.2-43.7 8.8-45.7 8.1-.7-.2 3.5-1.4 9.2-2.6 5.7-1.3 16.3-3.7 23.4-5.5 10.3-2.6 13.1-3 13.3-1.9.2.7.1 1.6-.2 1.9zm42.7 13c1 17.4 7.4 33.8 16.9 43.7 2.7 2.8 4.8 5.1 4.8 5.3 0 .2-5.2.3-11.5.3-14.5 0-20.3-1.9-27.9-9.3-8.5-8.3-14.2-20.1-17.1-35l-1.3-6.7 2.7-.7c17.5-4.4 29-7.1 30.7-7.2 2-.1 2.1.5 2.7 9.6z"/><path d="M98.6 322.7c-.6 1.4-.5 1.5.5.6.7-.7 1-1.5.7-1.8-.3-.3-.9.2-1.2 1.2zM1183.5 255.7c-14.6 1.8-39.7 8.6-55.3 14.9-4.8 1.9-11.6 4.1-15.2 5-17 3.9-36.2 11.2-58.1 22l-16.8 8.4-9.8-9.9c-49.8-50-131.2-52.2-240.3-6.6-23.7 10-93.4 46.5-98.5 51.7-1.3 1.4.1.6 19-10.2 19.8-11.3 61.4-31.9 79.5-39.3 46.6-19.1 83-28.4 119.9-30.6 45.7-2.8 82.4 7.6 110.1 31.3 5.4 4.6 15 15.1 15 16.4 0 .4-1.9 1.8-4.3 3.1-2.3 1.3-8.7 5.3-14.1 8.9l-10 6.5-1.5-2.4c-4.6-7-13.8-17.2-20.3-22.6-36.9-30.5-88.1-37.1-154.3-19.8-33.4 8.7-75 25.9-112.5 46.5-17.5 9.7-26.2 14-27.1 13.5-1-.7-29.9 15.9-29.9 17.2 0 .3 1-.1 2.3-.9 7.1-4.6 19.8-10.8 20.8-10.2.8.5.9.3.4-.6-.5-.8-.3-1.1.6-.8.8.3 3.2-.5 5.4-1.8 9.7-5.6 35.6-12 60.1-14.9 15-1.7 52.7-2 70.9-.5 36.8 3.1 79.3 10.4 128.5 22.1 20.5 4.9 20.3 4.8 18.9 6.5-3 3.7-4.4 3.6-27.2-1.5-52.6-11.7-92.4-18.3-128.2-21.2-20-1.5-65.3-.7-79.5 1.5-14.2 2.3-32.7 6.8-42.9 10.5-4.6 1.7-8.8 2.8-9.2 2.5-.5-.3-.9 0-.9.5 0 .6-.3 1-.7.9-1.3-.4-23 11.8-27.3 15.4l-2.5 2 3.5-2c1.9-1 6.2-3.5 9.6-5.5 14.6-8.7 41-16.9 65.9-20.3 17.6-2.5 59.4-2.5 81.5-.1 27.3 3.1 53.9 7.6 86.5 14.8 19.1 4.3 57.7 13.7 58.3 14.4.2.2-2.1 3.2-5.1 6.8-23.3 27.4-28.9 51-15.2 63.6 9.3 8.5 20.1 11.6 40 11.5 7.7-.1 16.5-.1 19.5-.1 31.9.4 33.2.3 39-2.4 14.3-6.8 25.1-22.9 29.6-44.2.8-3.9 1.6-7.3 1.8-7.5.3-.2 5.2.6 11.1 1.8 24 4.9 34.9 6.2 55.5 6.7 18.7.4 21.4.3 30.5-1.8 7.7-1.7 12.5-2.2 21-2 20.8.5 42.1-3.3 54-9.7 6.5-3.5 17.3-14.3 20.8-20.9 6.4-12 8.8-35.8 5.2-51-6.7-28.5-32.8-46.1-65-43.9-5.5.4-10.7.8-11.5.8-.8 0-4.7-1.1-8.6-2.5-9.5-3.4-21.4-5-32.5-4.5-4.9.2-8.3.1-7.6-.4 3.7-2 24.4-8.1 35.2-10.4 29.2-6 54.6-3.6 72.3 6.8 8.6 5.1 18.2 15.2 22.9 24.4 8 15.3 11.2 28.8 12.2 51.4.8 15.4.8 15.4.9 4.5.8-50-20.2-82.8-58-90.5-8.7-1.9-28.7-2.5-38.3-1.3zm-19.1 18.8c4.7.8 10.4 2.3 12.7 3.2l4.2 1.6-7.4 2.6c-4.1 1.5-9.9 4.1-13 5.9-4.6 2.6-6.7 3.2-11.5 3.2-18.2 0-37.4 7.2-48.5 18.1-23.5 23-7.9 60.9 28.1 68.5 14.2 3 27.4.3 35-7.1l3.5-3.4 6 1.8c3.3 1 8.4 2.2 11.3 2.6 2.8.4 5.2.9 5.2 1.2 0 1.4-6.3 9.3-9.2 11.5-7.6 5.8-8.4 5.9-22 4.3-20.6-2.6-55.3-9.1-86.9-16.6l-8.7-2-1.6-9.2c-2.1-11.3-6.4-24.3-11.1-33.7-3.4-6.8-4.7-8.1-6-6-.9 1.5-2.5 1.2-3.2-.5-.3-.9.2-2.2 1.2-2.9 1.8-1.3 1.7-1.5-.4-4.9l-2.2-3.6 6.3-3.5c15.4-8.6 43.9-21.1 54.8-24.1 1.4-.3-2.2 1.9-8 5-20.2 11-45.9 26.9-47.5 29.5-.4.6-.3 1.6.3 2.2.7.7 5-1.6 13.9-7.4 20.4-13.6 49.3-29.4 62.3-34.2 9.6-3.5 28.9-4.5 42.4-2.1zm-244.6 4c11.6 1.9 24.8 5.8 34 10 16.6 7.7 33.4 21.5 42.9 35.2l4.2 6-12.2 9.8-12.2 9.8-8-1.7c-58.5-12.5-90.3-17.8-130-21.7-19.8-2-68.8-1.7-85 .5-14.6 2-32.8 5.6-42.5 8.6-9.6 2.8-6 .6 19.5-12 76.3-37.8 139.2-52.6 189.3-44.5zm279.6 13.6c3.1 3.3 6.3 7.4 7.2 9.1l1.6 3-3.9-.6c-2.1-.3-6.3 0-9.3.7l-5.5 1.3-5.5-3.8c-3-2.1-8.2-4.9-11.4-6.2l-5.9-2.4 3.9-1.7c5.1-2.2 17.2-5.4 20.5-5.4 2-.1 4.1 1.4 8.3 6zm16-4.6c28.1 7.3 41.9 31.6 36.2 63.6-4.3 24-20.2 36.3-50.1 38.7-5.2.4-9.5.7-9.5.6 0-.1 2-3.2 4.5-6.8 2.5-3.7 4.8-7.9 5.1-9.2.5-1.9 2.2-3.2 6.2-5 3.1-1.4 7.1-3.6 8.8-4.9l3.3-2.5.4 2.3c.3 1.8.5 1.7.6-.7 0-1.6 1.3-5.4 2.8-8.4 3.8-7.8 4.4-21.1 1.4-31-2.2-7.4-7.2-14.9-11.5-17.1-1.5-.8-4-3.7-5.7-6.4-1.6-2.7-5.1-7.1-7.6-9.8l-4.6-4.9h7c3.8 0 9.5.7 12.7 1.5zm-70.7 14.3c-2 2.2-6.7 12.2-6.7 14.3 0 .8-1.6 2.3-3.5 3.2-4.3 2.1-6.8 5.7-6.2 9.4.4 2.8.4 2.8.6-.4.1-2.2 1-3.9 3.2-5.7 4.1-3.5 4.9-3.3 4.9 1.2 0 13.7 9.5 30.2 22 38.2 5 3.2 5 3.3 3.3 5.2-3.8 4.2-9.4 6.2-18.9 6.6-24.4 1.1-45.2-14.6-47.1-35.7-1.5-16.3 11.6-30.2 33.9-36.1 4-1 9.3-1.9 11.7-1.9 4.1-.1 4.3 0 2.8 1.7zm26.1 3.2c8.9 4.2 16.2 11.4 20.3 20.3 3 6.5 3.3 8.3 3.7 18.5.3 7.1 0 13.6-.8 17.4l-1.3 6-6.1-.5c-8.1-.7-16.9-3.6-16.2-5.4 1.9-4.9 2.7-14.4 1.6-20.4-2.8-15.5-9.7-23.4-21.8-24.8l-5.2-.6 2-4c1.1-2.2 3.6-5.7 5.5-7.7 3.4-3.4 3.7-3.5 7.8-2.6 2.3.5 7 2.2 10.5 3.8zm39.3 2.9c2.3 2.9 6.7 17.1 8.4 27.6l1.5 9-.6-7.2c-.5-7.3-4.1-21.9-6.3-26.1-.8-1.4-.8-2.2-.1-2.2 1.6 0 7.3 8.5 9.2 13.8 2.1 5.7 2.4 19.6.6 25.6l-1.3 4.1-.6-3.5c-.6-3.2-.6-3-.8 1.6-.1 4.2-.6 5.5-3.3 8.3-3 3-9.6 7.1-11.6 7.1-.5 0-.5-2.1-.1-4.8 1.2-7.5 1-20.1-.5-27.2-1.9-8.6-4.9-15.4-9.7-21.8-2.7-3.5-3.6-5.4-2.7-5.6.7-.3 2-.7 2.8-1 .8-.3 4.2-.4 7.5-.2 4.4.3 6.4 1 7.6 2.5zm-172.2 7c2.6 3.6 2.6 4.3.3 5.8-1 .6-6.5 4.8-12.2 9.4-5.6 4.6-11.1 9-12.1 9.7-1.6 1.2-2 .9-4.4-3.7-2.3-4.7-2.7-5-4.7-4-2.7 1.4-4.5-.9-2.3-3 1.1-1.2 1.7-1.2 2.9-.1 1.4 1 3.7-.1 15.3-7.8 7.6-5 14.1-9.2 14.5-9.2.4 0 1.6 1.3 2.7 2.9zm115.4 3.2c8.1 2.2 14 10.4 15.8 22.2 1.1 6.7-.1 17.1-2 19-2.6 2.6-15.7-10.1-19.9-19.2-2.5-5.5-4.2-18.1-2.9-21.5.7-1.9 3.7-2 9-.5zm-106.2 13.5c6.4 13.8 12.1 36.4 9.2 36.4-1 0-32.9-7.5-36.3-8.5-.9-.3-2.5-3.4-3.7-6.9l-2.1-6.4 3.7-3.5c4.8-4.7 23.4-19.6 24.4-19.7.5 0 2.6 3.9 4.8 8.6zm-41.3 6.9c1.2 2.5 2.2 5.2 2.2 5.9 0 .8-2.3 3.3-5.1 5.7l-5 4.2-8.1-1.8-8.1-1.9 3.9-3.4c5.3-4.6 16.5-13.2 17.3-13.2.4 0 1.7 2 2.9 4.5zm6 15.2c.6 2 1 3.8.9 3.9-.2.2-2.2-.2-4.5-.8l-4.3-1.1 2.7-2.8c1.5-1.6 3.1-2.9 3.4-2.9.4 0 1.2 1.7 1.8 3.7zm-21.9 9c.3.2-.6 1.4-2 2.7l-2.4 2.4-8.5-2c-4.7-1.1-8.7-2.2-8.9-2.4-.2-.1.9-1.4 2.5-2.7l2.7-2.4 8.1 2c4.5 1.1 8.3 2.2 8.5 2.4zm16.1 3.9c9.3 2.6 9.8 2.8 10.2 5.6.4 2.6.2 2.9-1.6 2.4-1.2-.3-6.4-1.5-11.6-2.7-5.2-1.2-9.9-2.5-10.4-3-.8-.7 1.9-4.9 3.1-4.9.2 0 4.9 1.2 10.3 2.6zm30.9 8c7.5 1.9 15.3 4 17.4 4.5 2.7.7 3.7 1.5 3.7 2.9 0 1.1-.5 2-1 2-2.7 0-33.7-7.3-34.7-8.2-1.6-1.3-1.7-4.8-.2-4.8.6 0 7.3 1.6 14.8 3.6zm-67.5-.4c4.4 1.2 8.2 2.2 8.4 2.4.2.1-1.7 3-4.2 6.5-2.4 3.5-6 9.5-7.9 13.4-11.6 23.3-8.3 40.2 9.8 49.6l4 2.1-10.5-.6c-19.6-1-32.7-6.9-36.6-16.3-4.1-9.8.8-25.9 12.9-42.3 6.1-8.3 13.8-17 14.9-17 .6 0 4.7 1 9.2 2.2zm32.9 8.5 14.7 3.8v7.2c0 18.9-8.5 39.5-20 48.1-3.9 3-4.9 3.3-8.7 2.8-5.4-.7-15-5.5-18.5-9.3-9.8-10.3-7.3-26.1 7.9-49.1 4.7-7 5.9-8.3 7.7-7.8 1.1.3 8.7 2.3 16.9 4.3zm81.6 3.7c27.1 6.4 27 6.4 24.1 6.5-1.4.1-8.8-1-16.5-2.3-28.6-4.9-27.5-4.6-27.5-6.7 0-1 .3-1.9.7-1.9.3 0 9 2 19.2 4.4zm-42.5 6.2 15.8 3.8-.6 5c-.8 7.1-5.1 19.4-9.2 26.2-4.9 8.2-9.9 13-16.9 16.4-7.1 3.4-14.1 4.4-23.5 3.5l-7-.7 5.1-5.6c9.5-10.4 15.6-26.2 16.6-43.5.5-8.3.8-9.7 2.2-9.3.9.2 8.7 2.1 17.5 4.2z"/><path d="M1179.6 313.6c-.8 2.1-.7 6.6.2 8.1.4.6.7-1.3.7-4.3s-.1-5.4-.1-5.4c-.1 0-.5.7-.8 1.6zM367 273.6c-1.4.2-6.8 1.2-12 2-29.9 5.1-56.4 20.6-73.5 42.9-3.5 4.6-5.5 8-5.1 9 1 2.6 3 1.6 6.4-3.4 22.8-33.6 66.8-51.1 118.9-47.4 45 3.3 88.3 16.8 146.3 45.6 28.6 14.2 29.5 14.6 26.5 12.2-3.2-2.5-51.7-26.5-65.3-32.3-29.3-12.4-60.5-21.9-86.5-26.3-8.8-1.5-17.9-2.2-32.7-2.4-11.3-.2-21.6-.2-23 .1zM599 349.4c0 .3.9 1 2 1.6 1.1.6 2 .8 2 .6 0-.3-.9-1-2-1.6-1.1-.6-2-.8-2-.6z"/></g></svg>