<svg xmlns="http://www.w3.org/2000/svg" width="500" height="250" version="1.0" viewBox="0 0 1280 736"><g fill="#3f51b5"><path d="M45 4.5V9H31v8h13.9l.3 3.7c.2 2.1.6 3.7 1.1 3.5.4-.1 3.4-.2 6.7-.2h6v-7h14V9H59V0H45v4.5zM151.7.7c-.4.3-.7 2.4-.7 4.5V9h-14v8h13.9l.3 3.7.3 3.8 6.8.2 6.7.3v-8h14V9h-14V0h-6.3c-3.5 0-6.7.3-7 .7zM258 4.5V9h-14v8h13.9l.3 3.7c.2 2.1.6 3.7 1.1 3.5.4-.1 3.4-.2 6.7-.2h6v-7h14V9.1l-6.7-.3-6.8-.3-.3-4.3-.3-4.2H258v4.5zM364.7.6c-.4.4-.7 2.5-.7 4.6V9h-13v7.9l6.7.3 6.7.3.1 3.5v3.5h14l.3-3.8.3-3.7h12.7l.4-4 .3-3.9-6.9-.3-7-.3v-4l-.1-4-6.5-.3c-3.6-.2-6.9 0-7.3.4zM472 4.5V9h-14v8h14v8.1l6.8-.3 6.7-.3.3-3.8.3-3.7H500V9h-14V0h-14v4.5zM579 4.5V9h-14v8h13.9l.3 3.7.3 3.8H593V17h14V8.5h-13.5l-.3-4.3-.3-4.2H579v4.5zM687 4.5V9h-14v8h14v7h14v-7h14V8h-14V0h-14v4.5zM793.8 4.2l-.3 4.3-6.7.3-6.8.3v7.8l6.8.3 6.7.3.3 3.5.3 3.5 6.7-.1 6.7-.2.3-3.5.3-3.6 6.7-.3 6.7-.3V8.6l-6.7.3-6.8.2V0h-13.9l-.3 4.2zM900.2 4.2l.3 4.3-6.8.3-6.7.3v7.8l6.8.3 6.7.3V24H915v-6.9l6.8-.3 6.7-.3v-8l-6.7-.3-6.8-.3V0h-15.2l.4 4.2zM1007 4.5V9h-14v8h14v7.5l7-.3 7-.4V17h14.1l-.3-4.2-.3-4.2-6.7.3-6.8.2V0h-14v4.5zM1114 4.5V9h-14v8h14v7h14v-7h14V9h-14V0h-14v4.5zM1221 4.5V9h-13v7.9l6.8.3 6.7.3V24h14.5v-6.9l6.7-.3 6.6-.3v-8l-6.7.3-6.6.3V0h-15v4.5z"/><path d="M18 25v4h12.9l.3 3.2.3 3.3H45V42h13.9l.3-3.2c.3-2.8.7-3.2 3.3-3.3C73.3 35.1 73 35.2 73 32v-3h14v-8H73v6H59v7.1l-6.7-.3-6.8-.3-.3-3.3-.3-3.2H32v-6H18v4zM124 25.5V30h14v6h13v6h14v-6h14v-7h14v-8h-14v6h-14v7h-12.9l-.3-3.3-.3-3.2-6.7-.3c-6.8-.3-6.8-.3-6.8-3.2v-3h-14v4.5zM231 25v3.9l6.8.3 6.7.3v3l.1 3H258V42h13.9l.3-3.2c.2-2.7.7-3.3 2.8-3.3 11.7-.5 11-.3 11-3.5v-3h14v-8h-14v6h-14v7h-13v-7h-14v-6h-14v4zM337 25.6v4.5l6.8-.3 6.7-.3.3 3.2.3 3.3H364v6h14v-5.9l7.2-.3 7.2-.3.1-3v-3l6.8-.3 6.7-.3V21h-14v3c0 2.9 0 2.9-6.7 3.2l-6.8.3-.3 3.2-.3 3.3H365v-7h-14v-6h-14v4.6zM444.2 25.2l.3 4.3 6.8.3c6.7.3 6.7.3 6.7 3.2v3h14v6h14v-3c0-2.9 0-2.9 6.8-3.2l6.7-.3.3-3.3.3-3.2H514v-8h-14v6h-14v7h-14v-7h-14v-6h-14.1l.3 4.2zM552 25v3.9l6.8.3 6.7.3v3l.1 3H579V42h13.9l.3-3.2c.3-2.8.7-3.2 3.3-3.3 10.8-.4 10.5-.3 10.5-3.5v-3h14v-8h-14v6h-14v7h-13v-7h-14v-6h-14v4zM660 25v3.9l6.8.3c6.5.3 6.7.4 7 3 .3 2.7.5 2.8 6.8 2.8h6.4v7h13.9l.3-3.3.3-3.2 6.8-.3c6.7-.3 6.7-.3 6.7-3.2v-3h14v-8h-14v6h-14v3c0 2.6-.4 3-2.7 3.1-1.6 0-4.5.1-6.6.2-3.6.2-3.7.1-3.7-3.1V27h-14v-6h-14v4zM766 25v4h14v7.1l6.8-.3 6.7-.3.3 3.3.3 3.2H808v-3.6c0-1.9.4-3.3.9-3 .5.3 3.7.3 7-.1 6-.6 6.2-.7 5.9-3.2-.3-2.6-.2-2.6 7-2.9l7.2-.3V21h-15v3c0 2.9 0 2.9-6.7 3.2l-6.8.3-.3 3.2-.3 3.3H794v-7h-14v-6h-14v4zM873 25v4h14v3c0 2.9 0 2.9 6.8 3.2l6.7.3-.3 3.2-.4 3.3h15.4l-.4-3.3-.3-3.2 7.3-.3c7.3-.3 7.3-.3 7-3-.3-2.7-.2-2.7 6.7-3.2l7-.5.3-3.8.3-3.7H928v6h-14.2l.4 3c.4 2.8.2 3-2.6 3.1-1.7 0-4.8.1-6.9.2-3.6.2-3.7.1-3.7-3.1V27h-14v-6h-14v4zM979.2 25.2l.3 4.2 6.7-.3 6.7-.2.3 3.3.3 3.3h6.5l6.5.1.3 3.2.3 3.2h13.9v-3.6c0-1.9.4-3.3.9-3 .5.3 3.6.3 7 0 5.9-.7 6.1-.8 6.1-3.5V29h14v-8h-14v6h-13.9l-.3 3.2-.3 3.3-6.7.3-6.8.3V27h-14v-6h-14.1l.3 4.2zM1087 25.2v4.3l6.4-.3 6.5-.4.3 3.4.3 3.3h13.5V42h14v-3.6c0-1.9.4-3.3.9-3 .5.3 3.6.3 7 0 5.9-.7 6.1-.8 6.1-3.5V29h14v-8h-14v6h-14v7h-14v-7h-13v-6h-14v4.2zM1194 25v4h14v6h13v7h13.9l.3-3.3.3-3.2 7.1-.3 7-.3-.4-2.9-.4-3h14l.4-4 .4-4H1249v6h-14v6.5h-13V27h-14v-6h-14v4z"/><path d="M87 35.5V39H73v6H59v7H45v-7H32v-6H18v-6H4v8h14v7h6.4c6.3 0 6.5.1 6.8 2.7.3 2.7.5 2.8 7 3.1l6.7.3.3 3.2c.2 1.8.6 3.1 1.1 2.9.4-.1 3.4-.2 6.7-.2h6v-6h14v-7h14v-6h14v-9H87v3.5zM193 35.5V39h-14v3c0 2.9 0 2.9-6.7 3.2l-6.8.3-.3 3.2-.3 3.3h-12.8l-.3-3.3-.3-3.2-6.7-.3c-6.8-.3-6.8-.3-6.8-3.2v-3h-14v-6h-14v8h14v7h14v6h12.9l.3 3.2.3 3.3 6.8.3 6.7.3V54h14v-2.9c0-2.7.2-2.9 6-3.5 3.3-.4 6.5-.4 7-.1.6.4 1-.9 1-2.9V41h14v-9h-14v3.5zM300 35.5V39h-14v6h-14v7h-12.9l-.3-3.3-.3-3.2-6.7-.3c-6.8-.3-6.8-.3-6.8-3.2v-3h-14v-6h-14v8h14v7h14v6h13v6h14v-6h14v-7h14v-6h14v-9h-14v3.5zM406 35.5V39h-14v3c0 2.9 0 2.9-6.7 3.2l-6.8.3-.3 3.2-.3 3.3h-12.8l-.3-3.3-.3-3.2-6.7-.3c-6.8-.3-6.8-.3-6.8-3.2v-3h-14v-6h-14v8h14v7h14v6h12.9l.3 3.2.3 3.3H378V54h13.9l.3-3.3.3-3.2 7-.1 7-.1-.3-3.2-.4-3.1H420v-9h-14v3.5zM513.7 32.6c-.4.4-.7 2-.7 3.6 0 2.8 0 2.8-6.5 2.8H500v6h-14v7h-14v-7h-14v-6h-13v-6h-14v8h13v7h14v6h14v7.1l6.8-.3 6.7-.3.3-3.3.3-3.2H500v-3c0-3.2 0-3.2 10-3.5 3.2-.1 3.5-.4 3.8-3.3.3-3.1.3-3.1 6.9-3.4l6.6-.3v-8l-6.4-.3c-3.6-.2-6.8 0-7.2.4zM621 35.5V39h-14v6h-14v7h-12.9l-.3-3.3-.3-3.2-6.7-.3c-6.8-.3-6.8-.3-6.8-3.2v-3h-14v-6h-14v8h14v7h14.1l-.3 2.7c-.3 2.8-.3 2.8 6.4 3.1l6.7.3.3 3.2c.2 1.8.6 3.1 1.1 2.9.4-.1 3.4-.2 6.7-.2h6v-6h14v-7h14v-6h14v-9h-14v3.5zM729 35.5V39h-14v6h-14v7h-13v-7h-14v-6h-14v-6h-14v8h14v7.1l6.8-.3 6.7-.3.3 3.2.3 3.3H687v6h14v-6h14v-7h14v-6h14v-9h-14v3.5zM835 35.5V39h-14v3c0 2.9 0 2.9-6.7 3.2l-6.8.3-.3 3.2-.3 3.3H794v-7h-14v-6h-13v-6h-14.5v8H766v7h14v6h14v6.5l7-.3c7-.4 7-.4 7-3.2 0-2.9.1-2.9 6.8-3.2l6.7-.3v-3l.1-3 7.3-.3 7.3-.3-.4-2.9-.5-3H849v-9h-14v3.5zM942 35.5V39h-14v3c0 2.9 0 2.9-6.7 3.2l-6.8.3-.3 3.2-.3 3.3H901v-7h-14v-6h-14v-6h-14v8h14v3c0 2.9 0 2.9 6.8 3.2l6.7.3.3 3.3.3 3.3 6.7-.2 6.7-.2-.3 3.1-.4 3.2h15.4l-.4-3-.4-2.9 7-.3 7.1-.3v-3l.1-3 7.3-.3 7.3-.3-.4-2.9-.5-3H956v-9h-14v3.5zM1048.7 32.6c-.4.4-.7 2-.7 3.6 0 2.8 0 2.8-6.5 2.8h-6.5v6h-14v7h-14v-7h-14v-6h-13v-6h-15v8h13.9l.3 3.2.3 3.3 6.8.3c6.7.3 6.7.3 6.7 3.2v3h14v6.5l7-.3c7-.4 7-.4 7-3.2 0-2.9.1-2.9 6.8-3.2l6.7-.3.3-3.3.3-3.2h13.9v-3c0-2.9 0-2.9 6.8-3.2l6.7-.3v-8l-6.5-.3c-3.6-.2-6.9 0-7.3.4zM1156 35.5V39h-14v6h-14v7h-14v-7h-13v-6h-14v-6h-14v8h14v7h13v6h14v6h14v-6h14v-7h14v-6h14v-9h-14v3.5zM1263 35.5V39h-14v3c0 2.9 0 2.9-6.7 3.2l-6.8.3-.3 3.2-.3 3.3H1222v-7h-14v-6h-13v-6h-15v8h13.9l.3 3.2.3 3.3 6.8-.3 6.7-.3V54h13v6h14.7l-.5-3-.4-2.9 7.3-.3 7.3-.3.1-3v-3l7.1-.3 7-.3-.4-2.9-.4-3h14.2v-9h-14v3.5zM514.3 63.8l-4.3.3V73h-9v10h9v10h10v-9.9l4.3-.3 4.2-.3.3-4.8.3-4.7H520v-4.4c0-2.5-.3-4.6-.7-4.8-.5-.2-2.7-.2-5 0zM796.7 63.6c-.4.4-.7 2.7-.7 5.1V73h-9v10h8.9l.3 4.7.3 4.8 4.8.3 4.7.3V81.8l4.3.4 4.2.3.3-4.8.3-4.7h-9l-.3-4.8-.3-4.7-4-.3c-2.3-.2-4.4 0-4.8.4zM1009.3 64.3c-.2.4-.3 2.4-.1 4.5l.3 3.7-4.8.3-4.8.3.3 4.7.3 4.7 4.5.5 4.5.5v9l4.8.3 4.7.3V83h9V73h-9v-8.8l-4.6-.4c-2.5-.2-4.8 0-5.1.5zM1152.5 64c-.4.6-.5 2.7-.3 4.8l.3 3.7-4.8.3-4.8.3.3 4.7.3 4.7 4.5.5 4.5.5v9l4.8.3 4.7.3V82.2l4.3.1 4.2.2.3-4.8.3-4.7h-9.1V63h-4.4c-2.5 0-4.8.5-5.1 1zM12 68.5V73H3v10h9v10h10V83h9V73h-9v-9H12v4.5zM47 68.5V73h-9v10h9v10h10V83h10v-9.9l-4.7-.3-4.8-.3-.3-4.3-.3-4.2H47v4.5zM83 68.5V73H73v10h10v10h9V83h9V73h-9v-9h-9v4.5zM119 68.5V73h-10v10h10v10h10v-9.9l4.8-.3 4.7-.3.3-4.8.3-4.7H129v-9h-10v4.5zM154 68.5V73h-9v10h9v10.1l4.8-.3 4.7-.3.3-4.7.3-4.7 4.2-.3 4.2-.3.3-4.8.3-4.7H164v-9h-10v4.5zM189 68.4v4.5l-4.7.3-4.8.3-.3 4.7-.3 4.8H189v10h10V83h10V73h-10v-9h-10v4.4zM224 68.5V73h-9v10h8.9l.3 4.7.3 4.8 4.8.3 4.7.3V83h9V73h-9v-9h-10v4.5zM261 68.5V73h-10v10h10v10h10v-9.9l4.8-.3 4.7-.3.3-4.8.3-4.7H271v-9h-10v4.5zM296 68.5V73h-9v10h9v10h9v-9.9l4.8-.3 4.7-.3.3-4.7.3-4.7-4.8-.3-4.8-.3-.3-4.3-.3-4.2H296v4.5zM332 68.4v4.5l-4.7.3-4.8.3-.3 4.7-.3 4.8H332v10h10V83h10V73h-10v-9h-10v4.4zM367 68.5V73h-9v10h9v10h10V83h9V73h-9v-9h-10v4.5zM403 68.5V73h-9v10h9v10h11V83h9V73h-9v-9h-11v4.5zM439 68.5V73h-9v10h9v10h9v-9.9l4.6-.3 4.7-.3.1-4.7.1-4.7-4.5-.3-4.5-.3-.3-4.3-.3-4.2H439v4.5zM473.2 68.2l.3 4.3-4.8.3-4.7.3V83h9.5v9.5l5.3.3 5.2.3V83h9V73h-9v-9h-11.2l.4 4.2zM546 68.5V73h-10v10h10v10h10V83h10V73h-10v-9h-10v4.5zM581.9 64.7c0 .5-.1 2.5-.1 4.5V73H573v9.9l4.3.3 4.2.3.1 4.5.1 4.5 4.6.3 4.7.3V83h9V73h-9v-9h-4.5c-2.5 0-4.5.3-4.6.7zM617 68.5V73h-10v10h10v10h10V83h9V73h-9v-9h-10v4.5zM654 68.5V73h-9v10h9v10h10V83h9V73h-9v-9h-10v4.5zM689.5 68.2v4.3l-4.7.3-4.8.3V83h10.2l-.3 4.7-.3 4.8h9.9l.3-4.8.3-4.7h8.9V73h-9v-9h-10.5v4.2zM725 68.5V73h-9v10h9v10.1l4.7-.3 4.6-.3v-9l4.6-.5 4.6-.5.3-4.7.3-4.7-4.8-.3-4.8-.3.1-4.3V64H725v4.5zM761 68.5V73h-10v10h10v10h10v-9.9l4.8-.3 4.7-.3.3-4.8.3-4.7H771v-9h-10v4.5zM831 68.5V73h-9v10h8.9l.3 4.7.3 4.8 5.3.3 5.2.3V83h9V73h-9v-9h-11v4.5zM867 68.5V73h-9v10h9v10h9V83h9v-9.9l-4.2-.3c-4.3-.3-4.3-.3-4.6-4.6l-.3-4.2H867v4.5zM903 68.5V73h-10v10h10v10h10v-9.9l4.8-.3 4.7-.3.3-4.8.3-4.7H913v-9h-10v4.5zM938 68.5V73h-9v10h9v10h10V83h9V73h-9v-9h-10v4.5zM974 68.5V73h-9v10h9v10.1l5.3-.3 5.2-.3V83h9.5v-9.9l-4.7-.3-4.8-.3.3-4.3.4-4.2H974v4.5zM1046 68.5V73h-10v10h10v10h10v-9.9l4.8-.3 4.7-.3.3-4.8.3-4.7H1056v-9h-10v4.5zM1081 68.5V73h-9v10h9v10h10v-9.9l4.3-.3 4.2-.3.3-4.8.3-4.7h-9.1v-9h-10v4.5zM1116 68.5V73h-10v10h10v10h10v-9.9l4.8-.3 4.7-.3.3-4.8.3-4.7H1126v-9h-10v4.5zM1188 68.5V73h-9v10h9v10.1l5.3-.3 5.2-.3V83h9.5V73h-9v-9h-11v4.5zM1224 68.5V73h-9v10h9v10.1l4.7-.3 4.7-.3-.3-4.8-.3-4.7h10.2v-9.9l-4.7-.3-4.8-.3V64h-9.5v4.5zM1259 68.5V73h-10v10h10v10h10v-9.9l4.8-.3 4.7-.3.3-4.8.3-4.7H1269v-9h-10v4.5zM215.7 102.6c-.4.4-.7 4.7-.7 9.6v8.8h19.1l-.3-9.3-.3-9.2-8.5-.3c-4.7-.1-8.9 0-9.3.4zM1047 113.5v9.5h18v-19h-18v9.5z"/><path d="M248 116v4h-8v9h-8v8.1l-7.7-.3-7.8-.3-.3-3.8c-.3-3.6-.4-3.7-4.3-3.7s-3.9 0-3.9-4v-4h-8v-8h-10v9h9v9h8v8h8v16h19v-17h3.5c3.4 0 3.5-.1 3.5-4 0-4 0-4 3.9-4 4 0 4 0 4.3-4.3.3-4.2.3-4.2 4.6-4.5l4.2-.3V112h-10v4zM1080 117.4v4.6h-9v8h-8v8h-14.9l-.3-3.3c-.3-3-.6-3.2-4.5-3.5-4.3-.3-4.3-.3-4.3-4.3 0-3.9 0-3.9-4-3.9h-4v-9h-9v10h8v4c0 4 0 4 3.9 4 4 0 4 0 4.3 4.2.3 4.3.3 4.3 4.6 4.6l4.2.3V157h18v-17h3.4c3.4 0 3.5-.1 3.8-4.3.3-4.2.3-4.2 4.6-4.5 4.2-.3 4.2-.3 4.2-4.3 0-3.9 0-3.9 4.1-3.9h4l-.3-4.8-.3-4.7-4.2-.3-4.3-.3v4.5zM631 132v10h-19v20h-19v19h-19v20h-19v20h-19v20h-18.9l-.3 9.7-.3 9.8-9.5.1-9.5.2-.3 9.6-.3 9.6H478v20h-19v20h-19v19h-19v20h-19v21h19v19h19v20h18.9l.3 9.7.3 9.8 9.8.3 9.7.3V459h18.5l-.3 9.5-.3 9.5H517v20h19v20h19v19h19v20h19v20h19v20h18.9l.3 9.7.3 9.8 9.8.3 9.7.3v-20l9.8-.3 9.7-.3.3-9.8.3-9.7H689v-20h19v-19h19v-20h20v-20h19v-19.5h18.5l.3-9.8.3-9.7H804v-20h19v-20h18.9l.3-9.8.3-9.7H861v-19.4l9.8-.3 9.7-.3v-20l-9.7-.3-9.8-.3V339h-19v-20h-19v-19h-19v-20h-19v-20h-18.9l-.3-9.8-.3-9.7H747V221h-20v-20h-19v-20h-19v-20h-19v-19h-19v-20h-20v10zm19 20v9h-18v-18h18v9zm-19 20v9h-18v-18h18v9zm38.2 0-.3 9H651v-18h18.5l-.3 9zM612 191.5v9.5h-18v-19h18v9.5zm38 .5v10h19v19h19v20h18.9l.3 9.7.3 9.8 9.8.3 9.7.3V281h19v18.9l9.3.3 9.2.3.3 9.7.3 9.8H784v20h18.9l.3 9.7.3 9.8 9.3.3 9.2.3V379h-19v20h-19v20h-19v19h-19v20h-19v20h-19.5l.3 9.5.3 9.5H689v19.9l-9.7.3-9.8.3-.3 9.7-.3 9.8H650v19h-18v-19h-19v-20h-19v-19h15v-10h14v-12h13.5l-.2-49-.2-49h10.1l-.2 6.2c-.1 3.5-.2 25.5-.1 49l.1 42.8h13v11h14v11h15v-79h77v-16h-12.9l-.3-7.2-.3-7.2-6.2.3-6.2.2-.3-7.3-.3-7.3-45.2-.3-45.3-.2v-9l45.3-.2 45.2-.3.5-7 .5-7h12l.5-7 .5-7h12v-16H688V241h-14.9l-.3 5.2-.3 5.3-6.5.1-6.5.2-.3 5.5-.3 5.6-6.7.3-6.7.3-.3 48.7-.2 48.8h-9.1l.1-6.3c.1-3.4.1-25.4.1-49L636 263h-13v-12h-14v-10h-15v79h-77v16h13v14h13v14l44.8.2 44.7.3v10l-44.7.3-44.8.2v14h-13v14h-13v15h-19.1l.3-9.5.3-9.4-9.5-.3-9.5-.3-.3-9.8-.3-9.7H460v-19h19v-20h18.9l.3-9.8.3-9.7 9.3-.3 9.2-.3v-18.8l9.8-.3 9.7-.3.3-9.7.3-9.7 9.2-.3 9.2-.3.3-9.8.3-9.7H575v-20h19v-19h19v-20h19v-20h18v10zm39-.5v9.5h-19v-19h19v9.5zm-96 20v9.5h-18v-19h18v9.5zm114.8-.3-.3 9.3-9.2.3-9.3.3V202h19.1l-.3 9.2zm19 19.5-.3 9.8-9.2.3-9.3.3V221h19.1l-.3 9.7zm-152.8.8v9.6l-9.2-.3-9.3-.3-.3-9.3-.3-9.2H574v9.5zm-19.2 19.2-.3 9.8h-18l-.3-8.4c-.2-4.6-.1-9 .2-9.8.4-.9 3-1.3 9.6-1.3h9.1l-.3 9.7zm191.2-.2v9.5h-19v-19h19v9.5zm-210 20v9.5h-19v-19h19v9.5zm229 0v9.5h-19v-19h19v9.5zm-248 20v9.5h-19v-19h19v9.5zm267 0v9.6l-9.2-.3-9.3-.3-.3-9.3-.3-9.2H784v9.5zm19 19v9.5h-18v-19h18v9.5zm-305.2.7-.3 9.3-9.2.3-9.3.3V301h19.1l-.3 9.2zm-19 19.5.3 9.3H460v-19.1l9.3.3 9.2.3.3 9.2zm343.2-.2v9.5h-18v-19h18v9.5zM607 328v6h-13v-12h13v6zm81 .5v6.6l-6.7-.3-6.8-.3-.1-5.5c-.1-3 0-5.8.3-6.3.2-.4 3.3-.7 6.9-.7h6.4v6.5zm-67 13v6.5h-13v-13h13v6.5zm52.5.5v6.5l-6.2.3-6.3.3v-14.2l6.3.3 6.2.3v6.5zM459 349.5v9.5h-18v-19h18v9.5zm382 0v9.5h-18v-19h18v9.5zm-401 20v9.5h-18v-19h18v9.5zm420.8-.3-.3 9.3-9.2.3-9.3.3V360h19.1l-.3 9.2zm-401.5 20-.1 9.3-9.1.3-9.1.3V380h18.5l-.2 9.2zm381.7.3v9.5h-18v-19h18v9.5zM674 397v7h-13v-14h13v7zm-53 .5v6.5h-13v-13h13v6.5zm-142 11v9.5h-19v-19h19v9.5zm343 .5v10h-18v-20h18v10zm-134 1.5v6.5h-13v-13h13v6.5zm-81 .5v6h-13v-12h13v6zm-109 17.5v9.5h-19v-19h19v9.5zm96 29.5v39h-18.9l-.3-9.8-.3-9.7-9.2-.3-9.3-.3V458h-19v-20h-20v-19h77v39zm209-29.5v9.5h-18v-19h18v9.5zm-286 20v9.5h-19v-19h19v9.5zm267 0v9.5h-19v-19h19v9.5zm-248 19v9.5h-19v-8.8c0-4.9.3-9.2.7-9.5.3-.4 4.6-.7 9.5-.7h8.8v9.5zm229 1v9.5h-19v-19h19v9.5zm-210 19v9.5h-19v-8.8c0-4.9.3-9.2.7-9.5.3-.4 4.6-.7 9.5-.7h8.8v9.5zm191 .5v9h-19v-18h19v9zm-172 19.5v9.6l-9.2-.3-9.3-.3-.3-9.3-.3-9.2H574v9.5zm153 0v9.5h-19v-19h19v9.5zm-134 20v9.5h-18v-19h18v9.5zm115 0v9.5h-19v-19h19v9.5zM612.5 547v9.5l-9.2.3-9.3.3v-20.2l9.3.3 9.2.3v9.5zm76.5.5v9.5h-19v-19h19v9.5zm-58 19v9.5h-18v-19h18v9.5zm38.8.2.3 9.3H651v-19.1l9.3.3 9.2.3.3 9.2zm-19.5 20.1.2 9.2H632v-19.1l9.1.3 9 .3.2 9.3z"/><path d="M632.8 208.7c-.3 3.6-.5 3.8-4 4.1-3.6.3-3.8.5-3.8 3.7s-.2 3.4-3.7 3.7l-3.8.3v16h7l.5-8 .5-8h3.5c3.3-.1 3.5-.3 3.8-3.8l.3-3.7H649v8h8v-8h-8v-8h-15.9l-.3 3.7z"/><path d="M657.7 220.7c-.4.3-.7 3.9-.7 8v7.3h-8v8h-16v-8h-8v8h8v8h16v-8h8v-8h8v-16h-3.3c-1.9 0-3.7.3-4 .7zM768.9 344.7c-.1.4 0 2.3.1 4 .1 3.2 0 3.3-3.9 3.3H761v8h-8v16h8v8h8v8h16v-8h8v-8h8v-16h-8v-4c0-4 0-4-3.9-4s-4-.1-4.3-3.8l-.3-3.7-7.7-.3c-4.3-.2-7.8.1-7.9.5zm15.9 11.5c.3 3.7.4 3.8 4.3 3.8h3.9v16h-8v8h-16v-8h-8v-16h8v-8.1l7.8.3 7.7.3.3 3.7zM497.8 349.7c-.3 3.6-.5 3.8-4 4.1-3.7.3-3.8.4-3.8 4.3s0 3.9-4 3.9h-4v16h4c3.9 0 4 .1 4 3.5s.1 3.5 4 3.5h4v8h16v-8h4c3.9 0 4-.1 4-3.5s.1-3.5 4-3.5h4v-16h-8v-8h-8v-8h-15.9l-.3 3.7zM514 358v4h8v15h-8v8h-16v-8h-8v-15h8v-8h16v4zM633 490c0 3.9-.1 4-3.5 4s-3.5.1-3.5 4v4h-8v16h8v8h8.2l-.4 3.7-.3 3.8 8.3.3 8.2.3V526h8v-8h8v-16h-8v-8h-8v-8h-17v4zm16.7 8-.5 4h8.8v16h-8v8h-16v-8h-8v-16h4.1c3.9 0 4-.1 3.9-3.3-.1-1.7-.2-3.5-.1-4 .1-.4 3.8-.7 8.2-.7h8.2l-.6 4zM249 147v4h-8v9h-9v8h-15.9l-.3-3.8c-.3-3.6-.4-3.7-4.3-3.8-4 0-4-.1-4.3-4.2-.3-4.2-.3-4.2-4.3-4.2-3.9 0-3.9 0-3.9-4v-4h-9v9h8v9h8v8h9v17h18v-18h9v-8h8v-8h8v-10h-9v4zM1021 150v5h4c4 0 4 0 4 3.9 0 4 0 4 4.3 4.3 4.2.3 4.2.3 4.5 4.5l.3 4.3h8.9v17.1l8.8-.3 8.7-.3.3-8.8.3-8.7h3.9c4 0 4 0 4-4v-4h8v-9h9v-9h-10v8h-8v4c0 4 0 4-3.9 4-4 0-4 0-4.3 4.2l-.3 4.3-8.2.3-8.3.3V162h-8v-8h-9v-9h-9v5zM5 159v10h18v8h9v10h9v9H5v8h20.3c11.1 0 23.2.3 26.9.7l6.8.6v9.7H23v8h20.3c11.1 0 23.2.3 27 .7l6.7.6v8.7l-18.2.2-18.3.3-.3 4.2-.3 4.3h20.8c11.4 0 23.8.3 27.6.7l6.7.6v8.7h9v8H0v20h20.1l-.2 9.7-.2 9.8 10.2.3 10.1.3V319h20v20h20v20h114v-20h-19.9l-.3-9.8-.3-9.7-9.7-.3-9.8-.3V300h20v19h18.9l.3 9.7.3 9.8 10.3.3 10.2.3V227h-20v-20h-20v-19h-19.9l-.3-9.6-.3-9.6-9.5-.2-9.5-.1-.3-9.8-.3-9.7H114v102h-8.9l-.3-4.8-.3-4.7-4.2-.3-4.3-.3V186h-9v37h-9v-55h-9v36h-9v-55h-9v36.5l-4.5-.3-4.5-.4V176h-9v-9h-8v-18H5v10zm128 111.5v9.5h-19v-19h19v9.5zm21 19v9.5h-21v-8.8c0-4.9.3-9.2.7-9.5.3-.4 5.1-.7 10.5-.7h9.8v9.5zM423 158v9h-8v10h-9v9h-9v-36h-9v55h-9v-37h-9v55h-9v-36h-9v55h-9v9h-9V150h-20v19h-20v20h-20v19h-20v20h-20v112h20v20h114v-20h20v-20h20v-19h20v-20h20v-20H343.9l.3-4.3c.3-4.2.3-4.2 4.6-4.5l4.2-.3V243h26.8c14.8 0 27.1-.2 27.3-.4.3-.3.3-2.3.1-4.5l-.4-4.1h-35.9l.3-4.8.3-4.7 26.8-.3 26.7-.2v-9h-36v-8.7l6.8-.6c3.7-.4 15.8-.7 27-.7H443v-8h-36v-10h9v-9h9v-7.9l8.8-.3 8.7-.3v-20l-9.7-.3-9.8-.3v9.1zm-89 113.5v9.5h-19v-19h19v9.5zm-20 19v9.5h-20v20h-20v20h-20v-20h20v-19.5h19.5l.3-9.8.3-9.7H314v9.5zM837 161v10h18v8h8v9h9v10h-35v8h19.8c10.8 0 22.7.3 26.5.7l6.7.6v8.7h-36v9h54v10h-35.8l-.4 4.1c-.2 2.2-.2 4.2.1 4.5.2.2 12.5.4 27.3.4H926v8.9l4.3.3c4.2.3 4.2.3 4.5 4.5l.3 4.3H831v20h20v20.1l10-.3 10-.3V321h20v20h20v20h114v-20h20V229h-20v-20h-20v-19h-20v-20h-20v-19h-20v101h-9v-9h-9v-55h-9v36.5l-4.2-.1-4.3-.1-.3-27.7-.2-27.7-4.1.3-4.1.3.1 18.2.2 18.3H891v-55h-9v36h-9v-9h-8v-9h-9v-18h-19v10zm127.8 111.2-.3 9.3-9.7.3-9.8.3V263h20.1l-.3 9.2zm20.2 19.3v9.5h-20v-19h20v9.5zm19.8 19.9.3 9.6h19.9v20h-20v-20h-20v-9.3c0-5.2.2-9.6.4-9.8.2-.2 4.6-.3 9.8-.2l9.3.1.3 9.6zM1145 161v10h-20.1l.3 9.5.3 9.5H1105v19h-20v19.9l-9.7.3-9.8.3-.3 55.7-.2 55.8h21v-20h19v-19h20v19.5h-19.5l-.3 9.7-.3 9.7-9.7.3-9.7.3-.3 9.7-.3 9.8H1199v-20h20v-19h20v-20h20.5v-19.2l9.5-.2 9.5-.1.3-9.7.3-9.8-51.8-.2-51.8-.3-.3-4.3-.3-4.2h9.1v-8.7l6.8-.6c3.7-.4 16-.7 27.5-.7h20.7v-8l-18.2-.2-18.3-.3-.3-4.6-.3-4.6 6.8-.6c3.7-.4 16-.7 27.3-.7h20.6l-.4-4-.4-4h-35.9l.3-4.8.3-4.7 26.5-.5 26.5-.5.3-4.3.3-4.2H1238v-9h9v-10h9v-8h18v-20h-20v18h-8v10.2l-4.2-.4-4.3-.3-.3 4.8-.3 4.7h-8.9v-37.1l-4.2.3-4.3.3-.3 27.2-.2 27.1-4.5.4-4.5.3V170h-9v55h-9v-37.1l-4 .3-4.1.3-.1 22.5c0 12.4-.3 24.9-.5 27.7l-.5 5.3h-8.8v9h-9V151h-20v10zm20 111.5v9.5h-19v-19h19v9.5zm-19 20v9.5h-21v-19h21v9.5z"/><path d="M250 177.9c0 4 0 4-4.2 4.3-4.3.3-4.3.3-4.6 4.5-.3 4.3-.3 4.3-4.3 4.3H233v9h-18v-4c0-4 0-4-3.9-4-4 0-4 0-4.3-4.3-.3-4.2-.3-4.2-4.5-4.5-4.3-.3-4.3-.3-4.3-4.3V175h-9.1l.3 4.7c.3 4.7.3 4.8 4 5.1 3.5.3 3.7.5 4 4 .3 3.6.4 3.7 4.6 4 4.2.3 4.2.3 4.2 4.3v3.9h8.9l.3 8.7.3 8.8 8.7.3 8.7.3.3-9.3.3-9.3 4.3.3 4.2.4V192h9v-8h8v-10h-9v3.9zM1024.3 176.8l-4.3.3v8.9h9v9h8v8h9v17h19v-18h9v-8h8v-9h8v-9h-9v4c0 4 0 4-3.9 4-4 0-4 0-4.3 4.2-.3 4.1-.3 4.2-4.3 4.2-4 .1-4 .1-4.3 4.3l-.3 4.3H1046v-8h-8v-8h-4c-4 0-4 0-4-3.9 0-2.2-.3-4.1-.7-4.3-.5-.2-2.7-.2-5 0zM255 386v10h20v20h20v20h-19.9l-.3-9.8-.3-9.7-9.5-.1-9.5-.2-.3-9.6-.3-9.6H235v111h20v19.9l9.8.3 9.7.3.3 9.8.3 9.8 9.9-.3 10-.3V567h20v19.5l10-.3 10-.3V485h9v9h9v55h9v-36h9v55h8v-37h10v54.8l4.1.4c2.2.2 4.2.2 4.5-.1.2-.2.4-8.5.4-18.3V550h9v9h7.9l.3 4.7.3 4.8 4.3.3 4.2.3V587h19v-21h-18v-8h-8v-9h-9v-10.1l17.5.3 17.5.3V531h-20.4c-11.1 0-23.1-.3-26.5-.6l-6.1-.7V521h36v-9.1l-22.2.1c-12.3 0-24.4.1-27 0H372v-10h36v-8.5l-21.7.1c-12 .1-24.2-.1-27-.3l-5.3-.5V484h-9v-9h104.1l-.3-9.8-.3-9.7-9.7-.3-9.8-.3V436h-20v-20h-20v-20h-19.9l-.3-9.8-.3-9.7-56.7-.3-56.8-.2v10zm60 59.5v9.5h-20v-19h20v9.5zm19.8 19.2-.3 9.8h-19l-.3-8.4c-.2-4.6-.1-9 .2-9.8.4-.9 3.1-1.3 10.1-1.3h9.6l-.3 9.7zM81 387v10H61v20H41v18.9l-10.1.3-10.2.3.2 9.7.2 9.8H1v20h104v7.9l-4.7.3-4.7.3v4.5l-.1 4.5-4.5.2c-2.5.1-14.8.2-27.3.2l-22.8.1.3 4.2.3 4.3 18.3.3 18.2.2v4.5c0 3.6-.4 4.5-1.7 4.6-1 .1-13.2.5-27.2.8l-25.4.6V521.2l18.1-.2 18.2-.1v9.8l-6.7.6c-3.8.4-15.9.7-27 .7H6v8h36v9h-9v10h-9v8H6v20h20v-18h8v-9h9v-9h9v36h9v-55h9l.2 18.2.3 18.3h8l.3-27.8.2-27.7h9v37.1l4-.3 4.1-.3.1-22c0-12.1.3-24.3.5-27.2l.5-5.2 4.1-.3 4.2-.3.3-4.8.3-4.7h8.9v102h20v-18.9l9.8-.3 9.7-.3V548H175v-19h20v-20h20V396.9l-10.2.3-10.3.3-.3 9.7-.3 9.8H175v19h-20v-18.9l9.8-.3 9.7-.3V397H195v-20H81v10zm74 59.5v9.5h-21v19h-19v-19h19v-19h21v9.5zM1086 388v10h20v20h-18.9l-.3-9.8-.3-9.7-10.2-.3-10.3-.3V510h20v20h20v19h19.9l.3 9.7.3 9.8 9.8.3 9.7.3V588h20V486.5l4.5.3 4.5.4v8.8h9v55h9v-37h9l.2 27.7.3 27.8h8l.3-18.3.2-18.2h9v55h9v-36h9v9h9v9h8v18h20v-20h-18v-8h-9v-9h-9v-10h36v-8h-20.2c-11.2 0-23.3-.3-27-.7l-6.8-.6V523h36v-9h-20.2c-11.2 0-23.3-.3-27-.7l-6.8-.6V504l18.3-.2 18.2-.3v-8l-27.2-.3-27.3-.2v-10h-9v-8h104v-20h-20.1l.2-9.8.2-9.7-10.2-.3-10.1-.3V418h-20v-20h-20v-20h-114v10zm40 39.5v9.5h-20v-19h20v9.5zm20.8 19.7-.3 9.3-10.2.3-10.3.3V438h21.1l-.3 9.2zm19.2 19.3v9.5h-19v-19h19v9.5zM912 389v10h-20v19h-20v20h-19.9l-.3 9.7-.3 9.8-9.5.2-9.5.1-.3 9.6-.3 9.6 51.8.2 51.8.3.3 4.2.3 4.3H927v8.7l-6.7.6c-3.8.4-15.9.7-27 .7H873v8.5l18-.3 18-.3v9.8l-6.7.6c-3.8.4-15.9.7-27 .7H855v8h36v10l-26.7.2-26.8.3v8l17.8.3 17.7.2v9h-9v10.2l-4.2-.4-4.3-.3-.3 4.3-.3 4.2h-18l.3 9.7.3 9.8 9.8.3 9.7.3V571h7.9l.3-4.7.3-4.8 4.3.3 4.2.4V552h9l.2 18.2.3 18.3h8l.3-27.2.2-27.1 4.5-.4 4.5-.3V570h9v-55h9v37.1l4.3-.3 4.2-.3.3-27.8.2-27.7h9v-9h9v102h20v-20h20v-19h20v-19h20v-20h20V399h-20v-20H912v10zm113.8 19.7-.3 9.8-9.7.3-9.8.3V438h-20v19.5l-10-.3-10-.3V438h20v-19.5h19.5l.3-9.8.3-9.7h20l-.3 9.7zM965 467.5v9.5h-19v-19h19v9.5zM216 525.5v8.5h-9v8h-8v9h-9v9h10v-8h8v-4c0-4 0-4 3.9-4 4 0 4 0 4.3-4.3l.3-4.2h17.8l.1 4.4.1 4.5h4c4 .1 4 .1 4.3 4.3.3 4.3.3 4.3 4.3 4.3 3.9 0 3.9 0 3.9 4v4h9v-10h-8v-8h-8v-8h-9v-18h-19v8.5zM1047.8 526.7l-.3 8.8-4.7.3-4.8.3v4c0 3.9 0 3.9-4 3.9h-4v8h-8v10h9v-8h8v-9h9v-8h18v9h8v9h8v8.1l4.8-.3 4.7-.3v-9l-4.2-.3c-4.3-.3-4.3-.3-4.3-4.3 0-3.9 0-3.9-3.9-3.9-4 0-4 0-4.3-4.3-.3-4.2-.3-4.2-4.5-4.5l-4.3-.3V518h-17.9l-.3 8.7z"/><path d="M217 556.5v8.5h-9v3.9c0 4 0 4-4.2 4.3-4.3.3-4.3.3-4.6 4.5-.3 4.3-.3 4.3-4.3 4.3H191v9h9v-8h9v-8h8v-8h17v9.2l4-.4 4-.4v8.6h8v8h10v-9h-9v-9h-8v-4c0-4 0-4-4-4h-3.9l-.3-8.8-.3-8.7-8.7-.3-8.8-.3v8.6zM1048 558.5v8.5h-9v8h-4c-4 0-4 0-4 3.9 0 4 0 4-4.2 4.3l-4.3.3-.3 4.7-.3 4.8h10.3l-.4-4-.4-4h8.6v-9.2l4 .4 4 .4V569h17v4c0 4 0 4 3.9 4 4 0 4 0 4.3 4.2.3 4.1.3 4.2 4.3 4.2 4 .1 4 .1 4.3 4.3l.3 4.3h8.9v-10h-8v-8h-9v-9.2l-4 .4-4 .4V550h-18v8.5z"/><path d="M217 587.9v8l-4.2.3c-4.3.3-4.3.3-4.6 4.5-.3 4.3-.3 4.3-4.3 4.3-3.9 0-3.9 0-3.9 4v4h-8v10h9v-9h8v-8h4.5c4.5 0 4.5 0 4.5-3.5V599h15v8h8v8h9v8h9v-9h-3.9c-4 0-4 0-4.3-4.3-.3-4.2-.3-4.2-4.5-4.5-4.3-.3-4.3-.3-4.3-4.3 0-3.8-.1-3.9-3.5-3.9H235v-17h-18v7.9zM1048 589.5v8.5h-8v8h-9v9h-8v9h9v-8h9v-9h4c3.9 0 4-.1 4-3.5V600h15v8h9v9h8v8h9v-10h-8v-8h-8v-8h-8v-18h-18v8.5z"/><path d="M217 623.5v9.5h18v-19h-18v9.5zM1048 625.5v9.5h18v-19h-18v9.5zM587.3 642.8l-4.3.3v8.9h-9v10.6h4.3l4.2-.1.3 4.8.3 4.8 4.7-.3 4.7-.3v-8l4.5-.5 4.5-.5.3-4.8.3-4.7H593v-4.9c0-2.8-.3-5.1-.7-5.3-.5-.2-2.7-.2-5 0zM13 648v5H4v10h9v9h10v-9h9v-10h-9v-10H13v5zM48.8 647.7l-.3 4.8-4.7.3-4.8.3v9.9h10v9h10v-8.9l4.7-.3 4.6-.3v-9l-4.6-.3-4.7-.3V643h-9.9l-.3 4.7zM84 648v5h-9v10h9v9h9v-8.9l4.8-.3 4.7-.3.3-4.8.3-4.7H93v-10h-9v5zM120 648v5h-10.1l.3 4.7.3 4.8 4.8.3 4.7.3v8.9h10v-9h10v-10h-10v-10h-10v5zM155 648v5h-9v10h9v9h10v-9h9v-10h-9v-10h-10v5zM190.5 647.7v4.8H181v10.1l4.8-.1h4.7l.1 4.5.1 4.5h9.8l.3-4.3.3-4.2h8.9v-10h-9v-10h-10.5v4.7zM226 648v5h-9v10h9v9h9v-8.9l4.8-.3 4.7-.3.3-4.8.3-4.7H235v-10h-9v5zM262 648v5h-10.1l.3 4.7.3 4.8 4.8.3 4.7.3v8.9h10v-9h10v-10h-10v-10h-10v5zM297 648v5h-9v10h9v9h10v-9h9v-10h-9v-10h-10v5zM333 648v5h-9v10h8.9l.3 4.2.3 4.3 4.8.3 4.7.3V663h10v-9.9l-4.7-.3-4.8-.3V643H333v5zM369 648v5h-10.1l.3 4.7.3 4.8 4.8.3 4.7.3v8.9h9v-9h9v-10h-9v-10h-9v5zM404.8 647.7l-.3 4.8-4.5.1-4.5.1v9.6l4.5.1 4.5.1.3 4.7.3 4.8h9.9v-8.9l4.8-.3 4.7-.3.3-4.8.3-4.7H415v-10h-9.9l-.3 4.7zM440 648v5h-9v10h9v9h10v-9h9v-10h-9v-10h-10v5zM475 648v5h-10.1l.3 4.7.3 4.8 4.8.3 4.7.3v8.9h10v-9h10v-10h-10v-10h-10v5zM511 648v5h-9v10h9v9h10v-9h9v-10h-9v-10h-10v5zM547 648v5h-9v10h8.9l.3 4.2.3 4.3 4.8.3 4.7.3V663h10v-10h-10v-10h-10v5zM618 648v5h-10v10h10v9h10v-8.9l4.8-.3 4.7-.3.3-4.8.3-4.7H628v-10h-10v5zM654 648v5h-9v10h9v9h9v-9h10.1l-.3-4.8-.3-4.7-4.7-.3-4.8-.3V643h-9v5zM689 647.9v5l-4.7.3-4.8.3-.3 4.7-.3 4.8H689v9h10v-9h10.1l-.3-4.8-.3-4.7-4.7-.3-4.8-.3V643h-10v4.9zM724 648v5h-9v10h9v9h10v-9h9v-10h-9v-10h-10v5zM760.9 643.7c0 .5 0 2.7.1 5l.2 4.3H751v9.9l4.8.3 4.7.3v8.5H771v-9h9v-10h-9v-10h-5c-2.7 0-5 .3-5.1.7zM796 648v5h-9v10h9v10h8.9l.3-4.8.3-4.7 4.5-.1 4.5-.1v-9.6l-4.5-.1-4.5-.1-.3-5.3-.3-5.2H796v5zM831 648v5h-10v10h10v9h10v-9h10v-10h-10v-10h-10v5zM866 648v5h-9v10h9v9h10v-9h9v-10h-9v-10h-10v5zM902.4 644.4c-.3.9-.4 3.2-.2 5.1l.4 3.5H893v10h9v9h11v-9h9v-10h-9.5v-9.5l-4.8-.3c-3.5-.2-4.9.1-5.3 1.2zM938 648v5h-9v10h9v9h9v-9h9v-10h-9v-10h-9v5zM974 648v5h-10v10h10v9h10v-9h10.1l-.3-4.8-.3-4.7-4.7-.3-4.8-.3V643h-10v5zM1009 647.9v5.1h-9v10h9v8.8l4.6.4c2.5.2 4.7.1 5-.1.2-.2.4-2.4.4-4.8V663h9.1l-.3-4.8-.3-4.7-4.2-.3-4.2-.3-.3-4.7-.3-4.7-4.7-.3-4.8-.3v5zM1045 648v5h-9v10h9v9h10v-9h10v-10h-10v-10h-10v5zM1081 647.9v5l-4.7.3-4.8.3-.3 4.7-.3 4.7 4.8.3 4.8.3.3 4.2.3 4.3h8.9v-9h9v-10h-9v-10h-9v4.9zM1115.7 643.6c-.4.4-.7 2.7-.7 5.1v4.3h-9v10h9v9h10.5v-8.5l4.8-.3 4.7-.3V653h-10.2l.3-4.8.3-4.7-4.5-.3c-2.4-.2-4.8 0-5.2.4zM1152 647.9v5.1h-9v10h9v10.1l4.7-.3 4.7-.3V668l.1-4.5 4.5-.1 4.5-.1v-9.6l-4.5-.1-4.5-.1-.1-5-.1-5-4.6-.3-4.7-.3v5zM1188 648v5h-10v10h10v9h10v-9h10.1l-.3-4.8-.3-4.7-4.7-.3-4.8-.3V643h-10v5zM1223 648v5h-9v10h9v9h10v-9h9v-10h-9v-10h-10v5zM1258 647.9v5.1h-9v10h9v9h10.5v-8.5l4.8-.3 4.7-.3V653h-10.2l.3-4.8.3-4.7-5.2-.3-5.2-.3v5zM46.7 675.6c-.4.4-.7 2-.7 3.6 0 2.8 0 2.8-6.5 2.8H33v6H19v6H5v9h14v-6h14v-7.1l6.8.2 6.7.3.3-3.2.3-3.2h12.8l.3 3.2.3 3.2 6.7-.3 6.7-.2.3 3.3.3 3.3 6.8.3c6.7.3 6.7.3 6.7 3.2v3h14v-8H88v-7H74v-6H59.8l.4-3.3.3-3.2-6.5-.3c-3.6-.2-6.9 0-7.3.4zM152.8 678.2l-.3 3.3-6.7.3c-6.8.3-6.8.3-6.8 3.2v3h-14v3c0 2.9 0 2.9-6.7 3.2l-6.8.3v8h14v-3l.1-3 6.7-.3c6.7-.3 6.7-.3 6.7-3.2v-3h14v-6h14v6h14v7h13v6h15v-8h-14v-7h-14v-6h-13.9l-.3-3.3-.3-3.2-6.7-.3-6.7-.3-.3 3.3zM259.7 675.7c-.4.3-.7 1.9-.7 3.5 0 2.8 0 2.8-6.5 2.8H246v6h-14v3c0 2.9 0 2.9-6.7 3.2l-6.8.3-.3 4.2-.3 4.3H232v-6h14v-7.1l6.8.2 6.7.3.3-3.2.3-3.2h12.8l.3 3.2c.3 2.9.6 3.2 3.8 3.3 9.6.3 9.9.4 10.2 3.2.3 2.7.5 2.8 7.1 3.1 6.7.3 6.7.3 6.7 3.2 0 2.8.3 3 3.8 3.1 2 0 5.2.1 7 .2 3.1.2 3.2.1 3.2-4.1V695h-14v-7h-14v-6h-14v-7h-6.3c-3.5 0-6.7.3-7 .7zM366 678.5v3.5h-14v6h-14v6h-13v9h14v-7h13v-6h14v-6h14v3c0 2.9 0 2.9 6.8 3.2l6.7.3.3 3.2.3 3.3H407v6h14.6l-.4-4-.4-4H408v-7h-14v-6h-14v-7h-14v3.5zM473 678.5v3.5h-14v6h-14.2l.4 3 .5 3H432v9h14v-7.1l6.8.2 6.7.3.3-3.2.3-3.2H473v-6h14v6h14v7h14v6h14v-8h-14v-7h-14v-6h-14v-7h-14v3.5zM581 678.5v3.5h-14v6h-14v3c0 2.9 0 2.9-6.7 3.2l-6.8.3v8l6.8.3 6.7.3V700c0-2.8.3-3 3.8-3.1 2-.1 5.2 0 7 .1 3.1.1 3.2 0 3.2-3.5v-3.6l6.8.2 6.7.3.3-3.2.3-3.2H595v3c0 2.9 0 2.9 6.8 3.2l6.7.3v3l.1 3 6.7.3c6.7.3 6.7.3 6.7 3.2v3h14v-8h-12.9l-.3-3.3-.3-3.2-6.7-.3c-6.8-.3-6.8-.3-6.8-3.2v-3h-13.9l-.3-3.3-.3-3.2-6.7-.3-6.8-.3v3.6zM793.4 675.9c-.2.2-.4 1.7-.4 3.3v2.8h-14v6h-13v7h-14v8h14v-6h14v-6h13v-7h14v7h14v6h14v7h14v-9h-14v-6h-14v-7h-14v-2.9c0-2.9-.1-2.9-6.6-3.3-3.6-.1-6.8-.1-7 .1zM1113.4 675.9c-.2.2-.4 1.7-.4 3.3 0 2.8 0 2.8-6.5 2.8h-6.5v6h-14v7h-14v8h14v-6h14v-6h14v-7h12.9l.3 3.2.3 3.3 6.8.3c6.7.3 6.7.3 6.7 3.2v3h14v7h14v-9h-14v-3c0-2.9 0-2.9-6.7-3.2l-6.8-.3-.3-3.3-.3-3.2H1127v-2.9c0-2.9-.1-2.9-6.6-3.3-3.6-.1-6.8-.1-7 .1zM687 679v3h-14v7.1l-6.7-.3-6.8-.3-.3 3.2-.3 3.3H646v8h14v-6h13v-6h14v-7h14v7h14v6h14v7h14.1l-.3-4.3-.3-4.2-6.7-.3c-6.8-.3-6.8-.3-6.8-3.2v-3h-14v-2.9c0-2.9-.1-2.9-7-3.6-6.9-.7-7-.7-7-3.6V676h-14v3zM900 679.6v3.5l-6.7-.3-6.8-.3-.3 3.3-.3 3.3-6.7-.2-6.6-.2-.1 2.9c0 2.9 0 2.9-6.7 3.2l-6.8.3v7.9h14v-6h14v-6h13v-7h14v7h14v6h14v7h14.1l-.3-4.3-.3-4.2-6.7-.3c-6.8-.3-6.8-.3-6.8-3.2v-3h-14v-2.9c0-2.9-.1-2.9-7-3.6-6.9-.7-7-.7-7-3.6V676h-14v3.6zM1006 679c0 2.9 0 2.9-6.7 3.2-6.7.3-6.8.3-6.8 3 .1 2.8 0 2.8-6.7 2.8H979v7h-14v8h14v-6h14v-3c0-2.9 0-2.9 6.8-3.2l6.7-.3.3-3.3.3-3.2h12.9v7h14v6h14v7h14v-9h-14v-6h-14v-7h-14v-6h-14v3zM1221 679c0 2.9 0 2.9-6.7 3.2l-6.8.3-.3 3.4-.3 3.3-6.5-.7-6.4-.7v7.2h-14v8h14v-6h14v-6h13v-7h14v7h14v6h14v7h14.1l-.3-4.3-.3-4.2-6.7-.3c-6.8-.3-6.8-.3-6.8-3.2v-3h-14v-2.9c0-2.9-.1-2.9-7-3.6-6.9-.7-7-.7-7-3.6V676h-14v3z"/><path d="M46.7 693.6c-.4.4-.7 2-.7 3.6 0 2.8 0 2.8-6.5 2.8H33v6H19v9h14v-3c0-2.7.3-3 3.3-3.1 10.5-.3 10.2-.2 10.5-3.7l.3-3.2h12.8l.3 3.2.3 3.3 6.8.3c6.7.3 6.7.3 6.7 3.2v3h14v-9H74v-6H59.8l.4-3.3.3-3.2-6.5-.3c-3.6-.2-6.9 0-7.3.4zM153 696.5v3.5h-14v6h-14.1l.3 4.2.3 4.3 6.7.3 6.7.3.3-3.3.3-3.3 6.5-.1 6.5-.1.3-3.2.3-3.1H167v3.6c0 2 .4 3.3 1 2.9.5-.3 3.7-.3 7 .1 5.8.6 6 .8 6 3.6v2.9l6.8-.3 6.7-.3v-8l-6.7-.3c-6.8-.3-6.8-.3-6.8-3.2v-3h-13.9l-.3-3.3-.3-3.2-6.7-.3-6.8-.3v3.6zM259.7 693.7c-.4.3-.7 1.9-.7 3.5 0 2.8 0 2.8-6.5 2.8H246v6h-14v9h14v-6h14v-7h12.9l.3 3.2.3 3.3 6.8.3c6.7.3 6.7.3 6.7 3.2v3h14v-4.6c0-4.5 0-4.6-3.2-4.4-1.8.1-5 .2-7 .1-3.5-.1-3.8-.3-3.8-3.1v-3h-14v-7h-6.3c-3.5 0-6.7.3-7 .7zM366 696.5v3.5h-14v6h-14.1l.3 4.2.3 4.3 6.7.3 6.7.3.3-3.3.3-3.3 6.8.3 6.7.3V702h14v7h14v6h14.1l-.3-4.3-.3-4.2-6.7-.3c-6.8-.3-6.8-.3-6.8-3.2v-3h-13.9l-.3-3.3-.3-3.2-6.7-.3-6.8-.3v3.6zM473 696.5v3.5h-14v3c0 2.9 0 2.9-6.7 3.2l-6.8.3v8h14l.3-3.3.3-3.4 6.5.4 6.4.3V702h13.9l.3 3.2c.3 2.8.7 3.2 3.3 3.3 10.8.4 10.5.3 10.5 3.5v3h14v-9h-14v-6h-14v-7h-14v3.5zM581 696.5v3.5h-14v6h-14v9h14v-6h14v-7h14v7h14.1l-.3 2.7-.3 2.8h14v-8l-6.7-.3c-6.8-.3-6.8-.3-6.8-3.2v-3h-13.9l-.3-3.3-.3-3.2-6.7-.3-6.8-.3v3.6zM687 697.5v3.5h-14v6h-14v8h14v-6h14v-2.9c0-2.6.4-3 3.3-3.3 1.7-.2 4.9-.1 7 .1 3.3.3 3.7.6 3.7 3.2v2.9h14v6h14v-8h-14v-6h-14v-7h-14v3.5zM793 697c0 2.7-.3 3-3.2 3.1-10.6.3-10.3.1-10.6 3.7l-.3 3.4-6.5-.4-6.4-.3v8.5h14v-6h13v-7h14v7h14v6h14v-8h-14v-2.9c0-2.8-.1-2.9-7-3.5-6.9-.7-7-.8-7-3.7V694h-14v3zM900 697.5v3.5h-14v6h-13.6l.4 4 .4 4H887v-6h13v-2.9c0-2.6.4-3 3.3-3.3 1.7-.2 4.9-.1 7 .1 3.3.3 3.7.6 3.7 3.2v2.9h14v6h14v-8h-14v-6h-14v-7h-14v3.5zM1006 697.2v3.3h-13.5v3l-.1 3H979v8.5h14v-3c0-2.9 0-2.9 6.8-3.2l6.7-.3v-3l.1-3 6.7-.3 6.7-.3v7.1h14v6h14v-8h-14v-2.9c0-2.7-.2-2.8-6.1-3.5-3.4-.3-6.5-.3-7 0s-.9-1.1-.9-3V694h-14v3.2zM1113 697.3v3.2l-6.4-.3-6.5-.3-.3 3.3-.3 3.3-6.7.3-6.8.3v7.9h14v-6h14v-7h13v7h14v6h14v-8h-14v-6.5l-6.8-.1-6.7-.1-.3-3.1-.3-3.2H1113v3.3zM1221 697.5v3.5h-14v6h-13v8h14v-6h13v-6h14v6h14v6h14v-8h-14v-6h-14v-7h-14v3.5z"/><path d="M46.7 711.6c-.4.4-.7 2-.7 3.6 0 2.8 0 2.8-6.5 2.8H33v9h13v8h15v-8h13v-8H61.1l-.3-3.8-.3-3.7-6.5-.3c-3.6-.2-6.9 0-7.3.4zM153 714.5v3.5h-14v9h14v8h14v-8h14V719.3l-6.1-.7c-3.4-.3-6.5-.3-7 0s-.9-1.3-.9-3.5V711h-14v3.5zM259.7 711.6c-.4.4-.7 2-.7 3.6 0 2.8 0 2.8-6.5 2.8H246v9h13V734.7l6.5.7c3.6.4 7 .4 7.5.1.6-.4 1-2.4 1-4.6V727h13v-7.9l-6.7-.3-6.7-.3-.1-3.5v-3.5l-6.5-.3c-3.6-.2-6.9 0-7.3.4zM366 714.5v3.5h-14v9h14v8h14v-8h14V719.3l-6.1-.7c-3.4-.3-6.5-.3-7 0s-.9-1.3-.9-3.5V711h-14v3.5zM473 714.5v3.5h-14v9h14v8h14v-8h14v-8l-4.2-.2c-2.4-.1-5.4-.2-6.8-.3-2.1 0-2.5-.6-2.8-3.8l-.3-3.7H473v3.5zM581 714.5v3.5h-14v9h14v8h14v-8h14v-8h-13.9l-.3-3.8-.3-3.7-6.7-.3-6.8-.3v3.6zM793.4 711.9c-.2.2-.4 1.9-.4 3.8v3.3h-14v8h14v9h14v-9h14v-8h-14v-6.8l-6.6-.4c-3.6-.1-6.8-.1-7 .1zM1113.4 711.9c-.2.2-.4 1.9-.4 3.8v3.3h-14v8h14v9h13.9l.3-4.3.3-4.2h13.5V719h-14.2l.4-3.6.3-3.6-6.9-.2c-3.7 0-7 .1-7.2.3zM687 715.5v3.5h-14v8h14v9h14v-7.9l6.8-.3 6.7-.3.3-4.3.3-4.2H701v-7h-14v3.5zM900 715.5v3.5h-14v8h14v9h14v-8h14v-9h-14v-7h-14v3.5zM1006 715.5v3.5h-14v8h14v9h14v-9h14v-8h-14v-7h-14v3.5zM1221 715.5v3.5h-14v8h14v9h13.9l.3-4.3.3-4.2 6.8.3 6.7.3V719h-14v-7h-14v3.5z"/></g></svg>