<?xml version="1.0" encoding="UTF-8"?>
<svg xmlns="http://www.w3.org/2000/svg" version="1.1" viewBox="0 0 400 400">
  <defs>
    <style>
      .cls-1 {
        fill: #009fe3;
      }

      .cls-2 {
        stroke-width: 8px;
      }

      .cls-2, .cls-3, .cls-4 {
        fill: none;
        stroke: #1d1d1b;
        stroke-miterlimit: 10;
      }

      .cls-3 {
        stroke-width: 7px;
      }

      .cls-5 {
        fill: #be1622;
      }

      .cls-4 {
        stroke-width: 10px;
      }
    </style>
  </defs>
  <!-- Generator: Adobe Illustrator 28.6.0, SVG Export Plug-In . SVG Version: 1.2.0 Build 709)  -->
  <g>
    <g id="_Слой_3" data-name="Слой_3">
      <path class="cls-5" d="M122.2,121.5s-7.9-5.4-9.4-9-.8-5,3.2-5.9,8.3,2.6,8.3,2.6c0,0-.7-7.7,2.4-9.3s7.2-.5,8,5.5c1.5,10.9-.6,22-.6,22,0,0-8.2-3.5-11.8-5.8Z"/>
      <path class="cls-5" d="M153.6,79.6s-7.9-5.4-9.4-9-.8-5,3.2-5.9,8.3,2.6,8.3,2.6c0,0-.7-7.7,2.4-9.3s7.2-.5,8,5.5c1.5,10.9-.6,22-.6,22,0,0-8.2-3.5-11.8-5.8Z"/>
      <path class="cls-5" d="M179.3,142.4s-7.9-5.4-9.4-9-.8-5,3.2-5.9,8.3,2.6,8.3,2.6c0,0-.7-7.7,2.4-9.3s7.2-.5,8,5.5c1.5,10.9-.6,22-.6,22,0,0-8.2-3.5-11.8-5.8Z"/>
      <path class="cls-5" d="M230.6,163.3s-7.9-5.4-9.4-9-.8-5,3.2-5.9,8.3,2.6,8.3,2.6c0,0-.7-7.7,2.4-9.3s7.2-.5,8,5.5c1.5,10.9-.6,22-.6,22,0,0-8.2-3.5-11.8-5.8Z"/>
      <path class="cls-5" d="M249.6,121.5s-7.9-5.4-9.4-9-.8-5,3.2-5.9,8.3,2.6,8.3,2.6c0,0-.7-7.7,2.4-9.3s7.2-.5,8,5.5c1.5,10.9-.6,22-.6,22,0,0-8.2-3.5-11.8-5.8Z"/>
      <path class="cls-5" d="M206.1,93.6s-7.9-5.4-9.4-9-.8-5,3.2-5.9,8.3,2.6,8.3,2.6c0,0-.7-7.7,2.4-9.3s7.2-.5,8,5.5c1.5,10.9-.6,22-.6,22,0,0-8.2-3.5-11.8-5.8Z"/>
      <path class="cls-5" d="M162.4,197.3s-7.9-5.4-9.4-9-.8-5,3.2-5.9,8.3,2.6,8.3,2.6c0,0-.7-7.7,2.4-9.3s7.2-.5,8,5.5c1.5,10.9-.6,22-.6,22,0,0-8.2-3.5-11.8-5.8Z"/>
      <path class="cls-5" d="M122.1,284.4s-7.9-5.4-9.4-9-.8-5,3.2-5.9,8.3,2.6,8.3,2.6c0,0-.7-7.7,2.4-9.3s7.2-.5,8,5.5c1.5,10.9-.6,22-.6,22,0,0-8.2-3.5-11.8-5.8Z"/>
      <path class="cls-5" d="M182.1,268s-7.9-5.4-9.4-9-.8-5,3.2-5.9,8.3,2.6,8.3,2.6c0,0-.7-7.7,2.4-9.3s7.2-.5,8,5.5c1.5,10.9-.6,22-.6,22,0,0-8.2-3.5-11.8-5.8Z"/>
      <path class="cls-5" d="M212.8,310.3s-5-6.9-5.2-10.5.9-4.5,4.5-4,6.2,4.7,6.2,4.7c0,0,1.8-6.7,4.8-7.1s6.2,1.8,5.1,7.1c-2.1,9.7-7.2,18.4-7.2,18.4,0,0-5.8-5.4-8.1-8.5Z"/>
      <path class="cls-5" d="M259.5,275s-8.3-1.1-10.9-3.3-2.5-3.5.3-5.7,7.5-1.1,7.5-1.1c0,0-3.4-5.5-1.6-7.9s5.5-3.1,8.5,1.1c5.3,7.7,7.9,16.9,7.9,16.9,0,0-7.8.4-11.6,0Z"/>
    </g>
    <g id="_Слой_1" data-name="Слой_1">
      <path class="cls-2" d="M71.8,47.3L143.4,10.5c11.3-2.8,18.2,18.5,31.1,46.8,10.3,22.6,42.9,93.2,60,114.1,28.2,34.6,27.9,59.2,20.2,74.5s-35,28.4-46.3,39c-23.2,21.8-81.2,79.7-108.2,90.6s-70.6-9.9-41.8-57.8c14.9-24.9,74.4-87.9,79.8-111.8,8.4-37.2-34.5-89.2-49-111.3-1.3-2.1-16.9-21.4-22.2-34.3s.1-10.6,4.9-13.1Z"/>
      <path class="cls-2" d="M163.1,31.7l61.4-20.3s9.9-3.2,21.9,34.6c15.9,49.8,22.7,115.5,44.7,142.2,20.1,24.4,21.9,33.9,22.3,38.8,1.8,21.2-7.7,37.7-23.7,47.2s-31.3,23.2-39.9,30.7l-60.7,60.2c-6.3,6.1-13.8,10.9-22.1,13.8-14.3,5-33.6,5.4-39.5-24.8"/>
      <path class="cls-4" d="M351,321.9"/>
      <path class="cls-4" d="M251.1,373.5"/>
      <path class="cls-2" d="M70.6,300.5s68-15.1,67.7,48.9"/>
      <path class="cls-2" d="M173.2,318.3s24.4-15.1,37.1,25.9"/>
      <path class="cls-2" d="M291.1,188.2c-8.4,8.2-30.5,51.3-7.7,90.3"/>
      <path class="cls-2" d="M233,169.6s-39.1,52.8-7.4,98.8"/>
      <line class="cls-2" x1="83.6" y1="87.3" x2="167.5" y2="41.5"/>
      <line class="cls-2" x1="248" y1="51" x2="180.5" y2="70.5"/>
      <line class="cls-3" x1="75.3" y1="45.5" x2="95.4" y2="80.9"/>
      <line class="cls-3" x1="88.8" y1="39.6" x2="107.8" y2="72.6"/>
      <line class="cls-3" x1="100.8" y1="34.5" x2="119.8" y2="67.5"/>
      <line class="cls-3" x1="114" y1="28.9" x2="132.9" y2="62"/>
      <line class="cls-3" x1="127.7" y1="22.9" x2="146.6" y2="56"/>
      <line class="cls-3" x1="139.1" y1="16.4" x2="158" y2="49.5"/>
      <line class="cls-3" x1="176.8" y1="29.9" x2="190.9" y2="65.3"/>
      <line class="cls-3" x1="188.6" y1="27.8" x2="202.7" y2="63.2"/>
      <line class="cls-3" x1="201.7" y1="23.8" x2="215.8" y2="59.2"/>
      <line class="cls-3" x1="216.1" y1="18.6" x2="230.2" y2="54"/>
    </g>
    <g id="_Слой_2" data-name="Слой_2">
      <ellipse class="cls-1" cx="151.2" cy="147.4" rx="2.8" ry="4.3"/>
      <ellipse class="cls-1" cx="233.7" cy="80.2" rx="2.8" ry="4.3"/>
      <ellipse class="cls-1" cx="157.3" cy="104.5" rx="4.5" ry="2.8"/>
      <ellipse class="cls-1" cx="259.4" cy="146.5" rx="4" ry="2.5"/>
      <ellipse class="cls-1" cx="205.7" cy="182.8" rx="2.1" ry="3.5"/>
      <ellipse class="cls-1" cx="197.9" cy="229.8" rx="2.1" ry="3.5"/>
      <ellipse class="cls-1" cx="150" cy="238.7" rx="3.9" ry="2.5"/>
      <ellipse class="cls-1" cx="256.4" cy="181.7" rx="3.9" ry="2.4"/>
      <ellipse class="cls-1" cx="228.9" cy="125.6" rx="3.9" ry="2.4"/>
      <ellipse class="cls-1" cx="159.9" cy="291.8" rx="3.1" ry="5.2"/>
      <ellipse class="cls-1" cx="242.4" cy="281.1" rx="2" ry="3.5"/>
    </g>
  </g>
</svg>