<svg xmlns="http://www.w3.org/2000/svg" width="1706.667" height="1313.333" version="1.0" viewBox="0 0 1280 985"><g fill="#ff9800"><path d="M710.5 110.9c-19.3 5.5-40.3 23.3-55.6 47.2l-5.2 8-1.8-4.1c-5.3-11.8-19.2-29.4-28.9-36.5-6.5-4.8-19.4-11-27.1-13.1-9.2-2.4-27.4-2.2-35.5.4-8.6 2.8-20.9 9.2-28 14.5-13.1 9.9-27.2 27.5-32.9 41.2-2.6 6.4-5.5 19.6-5.5 25.5 0 7.2 2.2 15.8 6.2 24 4.5 9.4 16.7 21.2 27.3 26.5 7.3 3.7 8.7 4 16 4 7.1 0 8.8-.4 15.6-3.6 8.9-4.3 14.9-9.4 19.4-16.4 7.8-12.3 8.6-24.9 2.1-33.8-1.1-1.6-5.3-4.4-9.3-6.4-6.4-3.1-7.9-3.5-13.2-3.1-10.5.7-20.1 9.9-20.1 19.3 0 5.1 4.5 12.7 8.9 14.9 7 3.7 14.8.9 17.8-6.2 1.2-3 1.2-3.7-.2-5.8-1.9-2.9-5.8-4-9-2.6-1.8.8-2.6.8-3.5-.3-1.6-1.9-.5-3.4 3.6-5.1 2.7-1.1 3.9-1.2 5.7-.3 4.3 2.2 5.7 5 5.7 11.9 0 5.7-.5 7.3-3.2 12-2 3.2-5.2 6.7-8.2 8.7-4 2.8-5.7 3.3-10.4 3.3-3.6 0-7.1-.7-9.8-2.1-6.4-3-14.7-12.6-19.6-22.6-4.2-8.5-4.3-8.8-4.2-18.7 0-8.9.4-11 3.2-18.1 6.8-16.9 23.5-36.6 36.5-42.9 16.9-8.3 34.1-9 48-1.9 11.7 5.9 22.3 15.5 30.6 27.6 4 5.9 10.3 19.2 12.6 26.8 1.7 5.4 1.7 5.6-.8 14-10.5 34.3-12.6 84.8-5.3 122.1.9 4.3 1.3 9.2.9 11-.5 2.9-7.5 21.4-16.4 43.6-1.6 4-4.6 9.8-6.7 13-5.8 8.6-6.7 11.6-6.7 21.7 0 7.6.4 9.9 2.6 14.6 2.6 5.5 9.5 13.5 13.4 15.7 1.7.9 1.8 1.4.8 2.9-3.2 4.8-6.4 10.8-8.9 17.2-3.3 8-4.9 9.2-4 2.8.8-5-.5-9.8-7.6-28.2-17.1-45.2-32.2-74.5-58.4-114-23.3-35.3-56.7-72.8-84.9-95.4-29.4-23.6-61.1-42.8-89.5-54.1-24.9-9.9-58.9-20.5-79.2-24.6-12.6-2.6-14.7-2.7-42.3-2.7-25.1 0-30.7.2-41.5 2.1-21.3 3.6-42.1 9.8-59.9 17.7-22.9 10.1-44.6 25.7-64.1 46.1-19.5 20.4-35.4 43.3-48.5 69.8C13.9 314.4 7 341.4 7 375c0 22.5 2.8 37.7 10.6 58.7 14.6 39 47.6 81.4 80.4 103.3 9.9 6.5 10.7 7.5 18.1 22.2 15.4 30.3 33 51.8 52.6 64.4 13.3 8.5 33.8 16.5 51.8 20 19.4 3.8 44.2.2 55.1-8.1l3.1-2.4.7 4.6c.3 2.5.6 8.5.6 13.3 0 12.9 3 31.2 9 55 4.1 16.2 9.1 30.3 16.7 46.5 9.1 19.5 9.5 20.5 13.6 34 5.7 19.3 5.7 18.6 0 22.9-12.3 9.4-22.9 22-25.8 30.7-2.3 6.8-1.8 18.3 1 22.1 5.8 7.8 18 9.5 29.5 4.2 10-4.7 14.9-11.3 18.5-24.9 2.8-10.8 1.2-30-2.5-30-2.6 0-2.3-3.4.3-4.4 13.7-5.2 28.2-2.1 43.6 9.5 5 3.8 16.1 15.3 16.1 16.8 0 .2-3.1 2.9-6.9 5.9-9.2 7.5-22 23.6-27.1 34.1-9.6 19.8-7.3 42.8 5.9 59.3 5.6 7.2 10.7 9.6 19.6 9.6 17.7-.1 34.8-15.5 39.8-35.8 4.7-18.9 2-37.9-8.6-60.9l-4.1-8.8 2.5-1.9c6.1-4.9 27.7-14.2 49.2-21.3 49.5-16.3 81.5-36.8 108.7-69.4 13.7-16.3 27.7-39.2 26.7-43.5-.4-1.4.7-4.6 2.6-8.4l3.2-6.3 2.3 16.3c1.3 8.9 2.7 18.9 3.3 22.3.5 3.3.9 10.2.9 15.3 0 11.2 1.7 16.1 5.4 16.1 2.3 0 2.6-.4 2.6-3.3l.1-3.2 1.4 2.5 1.3 2.5.6-2.5c.3-1.4.8-5.2 1.1-8.5.3-3.3 1.5-11.4 2.6-18 1.4-8.1 1.8-13.8 1.4-17.7-.5-4.1-.2-7.7 1.1-12.7l1.8-6.9 2.3 7.3c4.6 14.6 19 39.6 31.3 54.4 7.4 8.9 21.5 22.6 29.5 28.6 19.7 14.8 35.2 22.5 68.1 33.5 17 5.7 26.6 9.6 34.7 13.9 6.2 3.4 11.8 6.5 12.6 7 1.1.7.3 3-4.4 11.7-13 24.3-16.5 44.7-11 63.7 4.2 14.6 10.9 23.8 21 28.8 5.4 2.7 7.3 3.1 11.7 2.7 12.8-1.1 24.7-10.2 31.3-23.9 11.2-23.5 7.6-45.5-11.4-69.2-3.2-3.9-8.2-9.1-11-11.5-2.8-2.4-5.1-4.9-5.1-5.6 0-.7 4.4-5.6 9.7-11 10.8-10.8 19.1-15.8 29.8-17.7 6.1-1.1 14.4-.7 18.9 1l2.4 1-1.9 7.3c-2.7 10.4-2.6 28.7.1 36 4.1 11 11.6 16.8 23 17.5 8 .6 16.6-2.3 20.4-6.8 5.7-6.7 5.9-17.8.5-28.8-2.5-5.1-5.7-9-13.7-17l-10.6-10.3 3.9-11.7c5.6-17 9.4-25.5 20-44.6 16.8-30.3 24.3-49.5 30.9-79 4.3-19.7 5.3-26.5 3.8-27.4-.7-.4-.9-2.1-.5-4.5.4-2.6.9-3.3 1.4-2.4.8 1.1 1.1 1.1 1.8-.1.7-1.1 1.3-1 3.3.3 1.3.9 5.8 2.8 9.9 4.3 6.8 2.4 8.7 2.6 22.4 2.6 13 0 16.4-.3 26-2.7 17.5-4.4 37.3-12.9 52-22.4 23.8-15.3 45.6-40.8 63.1-74.2 2.5-4.7 4.1-6.2 11-10.5 14.6-9 22.6-15.6 39-31.9 28.5-28.6 50.9-62.1 61.8-92.6 13.6-37.7 12.1-82.7-4.1-128.1-4.8-13.7-18.1-39.9-26.5-52.4-18.8-28.1-41.7-49.3-67.8-62.9-20-10.3-34.4-15.6-52-19.2-6.9-1.4-14.5-3-17-3.5-9.5-2.1-29-3.9-41-3.9-11.6.1-24.5 1.4-38 3.9-3 .6-9.1 1.7-13.5 2.5-20.5 3.8-46.9 12.2-78 25.1-56.4 23.3-125.8 77.7-169.6 133-21.7 27.4-49.2 68.7-65.1 98-9.7 17.8-27.3 54.2-29.2 60.2-.4 1.3-1 2.3-1.4 2.3-.6 0-6.1-12.8-7.8-18.1-.4-1.1 1.1-2.9 4.4-5.5 7.1-5.6 11.7-12.2 13.7-19.9 2.5-9 1.2-16.6-5.9-35.5-14.2-38-16.4-51.3-11.3-68.5C664 282 666.5 234 661 202c-1.2-6.8-2-13.9-1.7-15.6.7-4 8-18.9 13-26.4 2-3 7.6-9.8 12.4-15.1 13.8-15.1 27.7-21.9 44.7-21.9 15.7 0 28.1 5.5 40.6 18 9.4 9.4 13.8 16.1 17.8 27.2 3.5 9.7 3.7 23.3.5 32.1-5.7 15.3-21.1 29.4-35.6 32.7-5.8 1.3-9.8-.1-13.2-4.6-1.4-1.8-3.1-3.3-3.7-3.1-1.3.2-5.3-6.4-6.4-10.6-.5-2.4-.4-2.8 1.1-2.5.9.2 3.2 1.8 5 3.5 3.8 3.8 7.9 4.3 14.1 1.7 19.5-8 17.5-27-3.5-33-10.7-3.2-21.8 1.9-27.4 12.6-2.7 5.1-2.9 6.1-2.5 14.5.5 10.9 3.3 17.2 11.1 25.3 7.8 8.1 11.4 9.6 22.2 9.6 7.5 0 10.1-.5 15.8-2.8 18.3-7.6 32-21.4 39.5-39.8 4.6-11.4 3.8-28.1-2.1-42.8-9.9-24.4-32.1-43-60.5-50.6-7.3-1.9-24.1-1.7-31.7.5zm250 70.9c25.3 8.5 44.3 27.4 53 52.7 1.6 4.5 4.5 17.7 4.5 20.1 0 1.1-1.1.7-4-1.6-5.6-4.4-14.1-7.2-23.8-7.8-9.9-.6-17.9.9-28.9 5.2-21 8.4-33.8 22.1-53.3 57.1-12.9 23.2-23 39.9-23 38 0-.4.8-2 1.7-3.5 2.4-4.2.6-7.5-5.4-10.1-5.3-2.3-8.5-2.7-12.5-1.6-2.3.6-2.8.4-2.8-1.1 0-1.1-.6-3.2-1.4-4.8-1.1-2.2-1.2-4.8-.7-11 .4-4.4 1.1-8.6 1.5-9.2 1.2-1.9 2.5-1.4 1.9.8-.9 3.3 2.5 10.6 6.7 14.4 5.9 5.3 13.6 6 21.7 1.9 5.1-2.5 11.7-13.4 11-18.1-.8-4.7-4.3-8.9-9.5-11.6-9.8-4.9-17.4-4.2-24.2 2.3l-4 3.8.1-18.1c.1-9.9.5-19 .9-20.2.5-1.2 1.5-6.2 2.4-11.1 4.5-26.3 15.9-47.7 29.6-56.1 20.6-12.5 26.1-14.4 40-13.8 7.2.3 11.8 1.1 18.5 3.4zm-588 4c10.2 3.4 21.9 10.1 29.2 16.6 7.3 6.5 11.3 15.1 14.1 30.1 2.9 15.3 3.5 26.6 2.7 50.3l-.8 20.3-3.1-2.9c-8.7-8.2-21.7-9.6-29.2-3-4.4 3.9-5.7 6.2-6.4 11.7l-.5 4.4-5.2-10.4c-9.3-18.6-19.2-31.4-29.4-37.9-7.1-4.6-21.2-10.5-29.6-12.4-13.5-3-27.7-1.5-36.3 3.9-4.9 3.1-5 2.6-1.1-9 5.6-16.2 13-27.7 27.3-41.6 6.3-6.3 10.9-9.8 16.5-12.7 19.5-10 37-12.5 51.8-7.4zm372.3 12.4c1.4 1.4 1.5 3.7.2 5.8-.8 1.3-1.2 1.2-2.5-.8-2-2.7-4.2-2.8-6.9-.3-1.8 1.6-2.3 1.7-3.3.6s-.7-1.9 1.8-3.9c3.3-2.8 8.6-3.5 10.7-1.4zm118.3 26.4c-12.4 24.9-13.1 29.2-13.1 75.6.1 29.1-.2 37.7-1.5 43.5-3.3 15.7-9.5 27.8-19.9 38.9l-6.4 6.9 2-6c1.5-4.3 2.2-8.6 2.2-15.5.1-8.5-.2-10.1-2.7-15.2-3.5-7.1-8.1-11.2-17.7-15.7-6.6-3.1-8.7-3.6-16.8-3.9-15.2-.6-25.6 3.2-35.7 13.3-17.4 17.1-16.4 39 2.2 48.2 4.8 2.3 6.9 2.7 14.2 2.7 7.5 0 9.5-.4 15.1-3 6.9-3.3 13.5-9.5 14.6-13.9.3-1.4.4-5.1.2-8.1-.6-6.7-3.5-10.2-10.9-12.8-8.7-3.2-15.6-.8-19.5 6.6-1.8 3.5-1.8 5.7.3 8 2.1 2.4 6.4 2.3 9.5-.2 1.4-1 2.8-1.6 3.2-1.3 1.2 1.2.6 5.4-1.4 9.4-1.8 3.5-7 7.9-9.3 7.9-.4 0-2.8-1.9-5.2-4.1-10.3-9.5-9.4-24.1 2.2-36.6 5.2-5.6 13.1-8 20.4-6.3 6.4 1.6 13.5 7.9 17.4 15.7 2.4 4.5 3.1 7.4 3.3 13.3.6 12.1-3.8 21.1-17.8 36.3-4.8 5.2-7.1 6.7-24.9 15.3-20.9 10.3-29.4 15.5-43.6 27-17.1 13.8-31.1 28.3-43.7 45.3-3.9 5.3-7.5 10-7.9 10.5-1.8 2 1.6-9 6.8-21.9 20.5-51.4 50.2-107.3 79.7-150 13.8-19.9 37.3-49.3 53.7-67 7.6-8.2 33.5-33 44.6-42.6 3.4-3 7.1-6.7 8.3-8.2 3.8-4.8 3.2-2.3-1.9 7.9zm-215.7 22.9c-.5 11.8-4.2 46.6-5 47.4-.9.9-.3-50.8.6-56.9.6-3.6 1.3-9 1.6-12 .3-3 .8-6.2 1.2-7 1.1-2.7 2.1 16.2 1.6 28.5zM438 230.7c17.9 15.2 38.8 37.9 55.6 60.3 36.9 49.1 65.9 103.8 88.1 166 10.9 30.5 18.3 59 15.3 59-.5 0-1-.5-1-1 0-.6-2.3-4.7-5.1-9.2-2.8-4.5-5.8-10.1-6.6-12.4-2.8-8.4-28-35.4-44.6-47.9-10.5-7.9-22.5-14.7-36-20.7-13.7-6-20-11.3-26.5-22.5-8.5-14.5-9.4-26-3.3-38.5 1.8-3.7 4.2-7.5 5.2-8.4 2.1-1.9 2.6-3.9.7-2.8-.8.5-.8.1.1-1 2.3-2.7 8.8-5.7 13.9-6.2 8.6-1 19.3 4.5 23.8 12.2 6.8 11.6 2.4 25.7-10.4 33-3.9 2.2-5.6 1.5-8.4-3.7-1-1.8-2.3-3.3-2.9-3.1-1.4.3-3-4.6-2.3-7.5.4-1.4.9-2.1 1.3-1.6.3.5 2.7 1.5 5.3 2.2 4.2 1.2 5.2 1.1 8.3-.3 3-1.4 3.5-2.2 3.5-5 0-3.9-1.7-5.6-8.8-8.6-18.8-8-32.4 13.6-18.4 29.2 8.1 9 20.5 10.7 34.7 4.7 11.5-4.8 20.5-14.4 17.7-18.9-.7-1.1-1.2-4.3-1.2-7.2 0-20.4-26.6-39.9-49.1-35.9-12.4 2.1-24.6 11.7-30.6 23.9-3.8 7.7-4.4 19.8-1.4 28.7 1.1 3.3 1.8 6.1 1.6 6.3-.8.9-6.9-6.6-11.1-13.8-11.7-19.7-14-38.7-8.9-72.7 3.5-22.9 4.2-42.1 2.1-54-1.6-9.4-4.3-16.6-5.8-15.7-.4.3-1.1-.3-1.4-1.3-.4-1-2-4.8-3.5-8.5-3.4-7.7-3.5-8.6-1.1-6.6.9.8 6 5.1 11.2 9.5zm701.5-4.2c10.5 1.9 13.9 2.8 20.6 5.4 14.5 5.5 26.6 18 33.2 34.1 4.5 11.1 5.1 14.7 5 31 0 13.9-.3 16.4-2.7 24.5-6.4 21.2-17 36.4-33.5 47.8-7.3 5-13.4 6.8-24.5 7.1-14.4.5-20.2 1.5-35.9 6.3-1.4.4-.8-1.5 2.8-8.9 8-16.6 10.3-35.5 6.9-56.6-.9-5.3-1.3-11.7-1-14.2.9-7.1 6.4-20.4 10.7-25.9 1-1.3 1.6-2.7 1.3-3.2-.2-.4 1.8-2 4.7-3.4 16.3-8.3 33.2 3.1 37 24.9 2.8 16.5-2.9 28.6-13.5 28.6-6.5 0-14.6-12.1-14.6-22 0-6.6 3.1-12.7 4.8-9.4.5 1.1 1.5 3.6 2.1 5.6 1.5 4.5 5.1 5.7 10.5 3.4 3.3-1.4 3.6-1.8 3.6-5.6 0-5.6-2.3-9.6-7-12-13.8-7-31.3 5.5-31.2 22.4 0 8.2 2.4 13.7 8.2 18.9 8.6 7.8 20.2 9 34.3 3.5 15.5-6 22.5-16.5 21.5-32.3-.8-12.5-8.7-25.4-18.8-30.5-25.4-13-48.9-5.2-66.8 22.3-4.6 7.1-4.9 7.3-7 5.9-1.2-.8-6.1-2.8-10.8-4.3-13.1-4.4-23.8-3.8-35.3 2.1l-4.2 2.1 2.2-4.3c9.1-18.1 31.5-44.5 44.9-53 9.7-6.2 27.6-11.5 39.5-11.7 2.8 0 8.6.6 13 1.4zm-958 9.5c15.7 4 28.3 11.6 40 24.2 9.1 9.8 19.4 25.5 25.7 39.1l1.8 3.9-4.7-2.7c-5.5-3.3-12.2-5.2-21.3-6.1-7.4-.7-16.9 1.4-23 5.1-1.9 1.2-4 2.5-4.7 2.9-.8.4-2.2-1.3-4.2-5.2-3.7-7.3-11.4-15.9-18.1-20.2-6.7-4.3-20.3-9-26.2-9-6.5 0-14.4 1.8-19.9 4.6-13.3 6.6-25 27.1-23.6 41 1.1 10.9 7.7 20.5 17.2 25 4.1 2 6.3 2.3 13.5 2.1 7.3-.2 9.5-.7 15.5-3.5 12.4-5.9 17.4-12.7 17.5-23.8 0-9.3-2.9-14-11.4-18.4-11.4-5.8-20.4-4.4-26.6 4.2-3.5 4.8-3.7 7.1-1 9.8 3.5 3.5 13.5 1.7 13.5-2.5 0-1.3.6-1.9 1.6-1.7.9.1 2.2-1.1 3.1-3l1.6-3.3 1.1 2.8c1.8 4.5 1.3 13.3-.8 17.5-4.2 8.2-13.3 14-20.8 13.3-1.8-.1-4-4.8-5.6-12-1.3-5.7-1.3-6.8.5-13.8 2.1-8.4 4.6-13.9 8.7-19.3 1.4-1.9 2.6-3.9 2.6-4.4 0-.6 2.4-2.3 5.4-3.8 6.8-3.6 13-3.7 20.4-.4 4.6 2 5.9 3.2 8.6 7.9 7.3 12.8 9.7 26.2 6.6 37.7-3.6 13.6-4.4 18.8-4.5 28.7 0 11.2 1.4 18.7 6 30.8 1.6 4.4 3 8.3 3 8.7 0 .4-1.7.2-3.7-.6-13-4.6-24.1-6.6-37.4-6.6-11 0-11.2-.1-16.9-3.5-9.2-5.6-19.1-16.8-24.4-27.7-6.9-13.9-8.9-22.5-8.9-38.8-.1-15.9 2-25.6 8.3-38.6 4.1-8.6 14.4-22.5 18-24.4 1.1-.6 1.8-1.5 1.5-2-.7-1.1 7.5-6.1 16-9.5 16.2-6.6 34.9-8.3 50-4.5zm953.6 60.7c-.8 1.5-1 1.5-1.1.2 0-1.7 1-3.2 1.8-2.5.2.3-.1 1.3-.7 2.3zm-717.5 41c-.2.2-1.8-.3-3.5-1.1-1.6-.9-5.2-1.6-7.9-1.6-4 0-5.3.5-7.6 2.9-1.6 1.6-3.1 4.4-3.5 6.3-.7 3.2-.9 2.9-6.9-9-5.7-11-6.8-15.1-3.1-10.5 2.1 2.5 7.3 4.3 12.3 4.3 5.5 0 14.1-3.7 17.6-7.5l2.5-2.7.3 9.2c.1 5.1.1 9.5-.2 9.7zm443.4 8.8c0 .7 1.6 2.7 3.5 4.4 4.1 3.6 9.6 4.1 14.6 1.5 3.1-1.5 3.1-1.5-1.2 4.3-12 16.4-24 28.5-36.9 37.6-5.9 4-16.1 9.7-17.5 9.7-.3 0 2.5-2.6 6.2-5.8 9.2-8 14.5-13.9 19.9-22.2 6.1-9.5 9.2-16.9 7.4-18-1-.6-1-1.7.4-5.6.9-2.6 1.6-5.6 1.6-6.6 0-1.1.5-1.6 1-1.3.6.3 1 1.2 1 2zm-217 17.9c1.1 3.8 1.9 7 1.7 7.1-.1.1-2.5-.1-5.3-.3l-5.1-.4.2-5.1c.1-2.9 1-7.1 2-9.5l1.7-4.3 1.5 2.8c.8 1.5 2.3 5.9 3.3 9.7zm-221.7-4.3c2.2 8.8 9.1 23 15 30.6 2.4 3.2 7.7 8.9 11.6 12.6 3.9 3.7 6.9 6.7 6.5 6.7-.3 0-4.9-2.5-10.2-5.7-11.7-6.8-25.9-20.5-37.5-36.2-7.9-10.7-9.1-12.9-5.8-11.1 3.2 1.6 8.3 1.1 13.1-1.5 2.5-1.3 4.7-2.4 5-2.5.3 0 1.3 3.2 2.3 7.1zm723.2 31.3 6 2.7-7.3 3.1c-13.4 5.6-21.1 16.2-22 30.4-.8 12.2 2.3 20 11 28 8.3 7.6 21.5 9.5 31.8 4.5 2.4-1.1 4.5-2.1 4.6-2.1.8 0-3.3 16.8-5.7 23.6-3.1 8.4-4.2 9.8-5.3 6.9-.3-.9-2.9-2.7-5.8-4-10-4.7-20.5-2.5-26.9 5.7-8.2 10.3-7.9 22.6.8 31.9l4.5 4.8-3.9 1.9c-2.1 1.1-5.8 2.5-8.3 3.2-2.5.6-5.3 1.3-6.2 1.6-1.3.4-1.8 0-1.8-1.6 0-4.2-2.8-7.7-8.1-10-6.9-2.9-11.3-2.3-15.6 2.5-2.8 2.9-3.3 4.2-3.3 8.5v5h-9.2c-24.8 0-46.2-11-61.5-31.5-2.5-3.3-5-6-5.7-6-2 0-6.9-11.2-6.8-15.8 0-15.5 3.3-28.4 9.4-36.9 1.2-1.8 1.5-2.8.7-2.3-1.2.8-1.2.7 0-.9 2.2-2.6 9.8-6.2 16.3-7.6 10.2-2.3 18 1.4 21.8 10.2 2.8 6.6 2.3 15.3-1.3 21.9-2.7 4.9-10.6 10.9-14.3 10.9-2.4 0-2.4-.2-1.8-4.9.8-5.8-.8-7.7-8.6-10.5-11.1-4-18 1.6-18 14.8 0 5.8.3 6.9 3 10 6.6 7.5 18.2 7 35.5-1.4 18.6-9 28.9-21.6 28.9-35.4 0-11.7-6.6-18.7-22.7-24.1l-7.2-2.4 4-1.7c12.8-5.3 28.9-14.3 32-17.9 2.2-2.5 13.6-8.6 22.3-11.9 19.2-7.3 33.5-8.4 44.7-3.2zM162 398.6c13.5 3.7 21.4 7.6 37.3 18.3 11.9 8.1 24.8 15.1 27.6 15.1.6 0 1.1.4 1.1 1 0 .5-1.1 1-2.3 1-4.2 0-14.4 5.9-19 11-5.3 5.9-7.2 11.7-6.4 20 .7 8.1 4 14.3 11.7 22.1 9.2 9.3 17.4 13.2 28.9 13.7 7.5.4 9.3.1 14.2-2.1 6.2-2.7 6.9-4.1 6.9-14.2 0-9.1-.8-11.1-5.1-13-2.1-1-5.7-1.8-8-1.8-3.5 0-4.8.6-7.1 3.2s-2.8 4-2.8 8.5c0 4.4-.3 5.5-1.7 5.8-5.8 1.3-13.4-5.4-15.9-13.9-1.9-6.4-1.2-11.7 2.3-18.7 1.3-2.6 2-4.5 1.4-4.1-.6.3-1.1.3-1.1-.2 0-1.2 6-4.8 10.4-6.3 6.8-2.2 17.4.5 24.3 6.4 1.8 1.5 4.7 5.7 6.4 9.4 2.9 6 3.2 7.4 3.1 16.2 0 7.7-.5 10.8-2.5 16.2-4.8 12.6-13.3 24.1-24.5 33-13.6 10.8-33.8 18.6-52.4 20.3l-7.8.7v-4.9c0-6.3-1.7-8.5-8.5-11.3-9.5-3.8-15.2-1-17.6 8.7-.6 2.4-1.3 4.3-1.5 4.3-.7 0-19.9-6.2-20.7-6.7-.4-.2 1.8-2.7 4.8-5.5 8.7-7.9 11.7-15.6 9.5-23.9-3.3-12.3-23.4-20-34.9-13.4-3.1 1.8-4.6 2.2-5.1 1.4-.4-.6-1.5-4.7-2.5-9-1-5-2.2-7.9-3-7.9-1.7 0-2.5-2.2-2.5-6.7 0-2.4.4-3.3 1.3-2.9 10.2 4.2 18.9 4.4 28.8.6 13.8-5.3 21.9-16.1 22.7-30 1-17-6.3-28.5-21.7-33.9l-5.2-1.8 3.1-2.6c1.7-1.4 4.7-2.9 6.8-3.2 2-.4 4.2-.8 4.7-1.1 1.9-.7 17.1.8 22.5 2.2zM887.1 421c7.9 1.1 16.9 2.4 19.9 3 16.2 2.9 22.9 4.2 36.9 7 12.5 2.6 18.8 3.3 34.4 3.8l19.2.7-7 5.8c-9.3 7.8-14.8 14.5-19.9 24.6l-4.2 8.3-1.7-2.5c-2-3.1-14.2-11.7-26-18.5-22.7-13-53.8-23.5-78.2-26.6-18.6-2.3-24.9-2.8-36.8-2.5-7.4.2-13 .1-12.3-.3.7-.4 7.1-1.6 14.2-2.7 17.9-2.7 42.5-2.7 61.5-.1zm-441.6 3.5c19.3 2.2 21.5 3.3 6.5 3.3-36.7 0-64.5 5.5-98.9 19.6-18 7.4-35.9 17.9-46.5 27.4l-4 3.5-1.6-5.1c-.9-2.8-3-7.1-4.5-9.4-3.6-5.5-13.4-15.8-15-15.8-1.8 0-8.7-5.7-7.7-6.4.5-.3 6.7-.6 13.8-.7 15.4-.2 30.8-2.3 53.9-7.1 28.6-5.9 47.9-9.5 55-10.1 11-1 37.5-.5 49 .8zm406 13c26.1 4.2 56.6 14.5 75.3 25.4 8.6 5 23.2 16.3 29.7 23l4.9 5.1.1 32.8c.1 18 .4 42.8.9 55.2.5 16 .5 22.1-.3 21-.8-1.2-1.1-.6-1.2 2.5-.2 7-3.8-9.4-4.9-22-1-13.2-4.2-24-11.2-38-6.9-13.7-12.9-22.6-21.7-31.7-11.4-12-23.2-18.7-44.5-25.2-6.1-1.9-15-5.3-19.9-7.6-20.5-9.7-52.6-18-77.7-20.2-13.6-1.2-17.5-.9-40 2.9l-3.5.6 5-4.7c10.7-10.1 32.7-18.2 56-20.6 11.5-1.2 41.3-.4 53 1.5zm-380 1.5c13.8 1.6 31.9 5.6 38 8.4 6.8 3.1 25.4 15.3 25.5 16.7 0 .4-3.5-.3-7.7-1.4-10.7-3-41.7-3.1-56.8-.4-19 3.6-36.7 8.8-51.8 15.3-4.3 1.9-8 3.4-8.3 3.4-.3 0 .6-1.4 2-3.1 2.7-3.2 3.2-4.5 1.7-5.1-.5-.2-1.2-3.9-1.5-8.3-.3-4.4-.5-8.1-.6-8.3 0-.2-2.8-1.6-6.2-3.2-13.6-6.5-26.8-1.2-29.2 11.5-2 10.5 8.5 22.7 18.2 21.1 5.8-.9 2.3 1-6.3 3.5-20.7 5.9-29.3 10.9-44.1 25.4-12.6 12.5-24.1 28.7-33.9 48.3-7.4 14.9-10 21.7-14.7 39.7l-3.9 15 .6-10.2c.3-7 1.2-11.9 2.6-15.5 3.5-8.8 9.9-55.1 10.6-76.2l.6-17.9 4-4.4c2.2-2.4 9-8.4 15.1-13.3 35.1-28.3 99.3-46.3 146.1-41zm322 30c15 2.7 41.5 10.5 41.5 12.2 0 .4-3.5.8-7.7.8-10.1 0-17 1.1-36.8 5.6-31.3 7.1-57.1 18.6-80.1 35.7-10.5 7.7-28.7 25-37.3 35.2l-4.2 5 2-5c4-10.5 14.2-32.1 19.5-41.4 5.5-9.7 16.2-24.8 21.7-30.6 1.6-1.7 2.9-3.6 2.9-4.2 0-3 20.1-11.2 32.5-13.2 3.9-.6 8.1-1.3 9.5-1.5 4.2-.8 30.2.2 36.5 1.4zM527 471.7c3.6.8 11.1 3.7 16.8 6.5l10.3 5 7.5 10.6c13.3 18.7 20.3 33.5 29 61.1 6.3 19.8 6.4 20.8 1.7 13.6-2.2-3.3-5.8-8.5-8.1-11.5s-4.2-6.1-4.2-6.8c0-.8-3-4.6-6.7-8.4-30-31.1-73.1-50.3-126.2-56.2-7.3-.8-13.5-1.7-13.7-1.9-.2-.2 4-1.6 9.3-3.2 5.4-1.5 11.7-3.4 14-4.1 7.4-2.4 24.6-5.6 33.8-6.4 11.6-1 28.2-.2 36.5 1.7zm304.3 21.2c-12.9 7.1-23.7 17.6-30.4 29.6-8.3 14.8-12.8 36.9-10.9 53.5.5 4.7 1 9.1 1 9.8 0 .8-2.1.2-6-1.8-14.2-7.2-30.9-11.1-47.5-11.1-19.6-.1-35.9 4.1-57.2 14.6-6.8 3.3-12.3 5.7-12.3 5.3 0-1 13.3-20.7 16.8-24.8l3-3.5v2.8c0 3.3 3.7 7.7 6.6 7.7 3.9 0 10.6-3.2 10.6-5.1 0-1-.4-2.1-1-2.4-.5-.3-1-1.2-1-1.8 0-.7.4-.6 1 .3.9 1.3 1 1.3 1 0 0-1.6-7.4-6-10-6-.9 0-2.7.8-4 1.7-2.2 1.5-2 1.2.8-2.4 7.2-9.2 36.4-34.3 49.3-42.6 17.3-11 44.8-20.5 70.2-24.2 14.9-2.1 15.8-2.2 20.7-2.3l4.5-.2-5.2 2.9zM456.8 496c37.7 6.5 55.9 13.9 82.1 33.5 21.8 16.4 46.5 46.8 54 66.8 1 2.6 1 2.7-1.2 1.6-1.2-.7-5.3-3.3-9.2-5.7-7.9-5.1-16.4-8.9-28-12.5-13.3-4.2-19.3-5.2-33-5-18 .1-30 3-50.4 12-1.1.5-1.3 0-.7-2.8 1.9-9 2.6-19.8 1.5-22.6-2-5-2.7-10.3-1.8-14.4.8-3.2.4-5.4-1.7-11.7-6.2-18.4-13.5-27.4-29-35.8-5.7-3-10.4-5.8-10.4-6.1 0-.9 15 .6 27.8 2.7zm520.5 3c1.6 7.8 15.3 23.9 27 31.7 3.7 2.5 13.2 7.4 21 11 19.8 8.9 35.3 12.3 56.9 12.3 9 0 18.4-.6 22.8-1.4l7.5-1.4-5 4.5c-7.4 6.6-25.8 18.7-35.5 23.2-11.3 5.2-19.5 7.8-31 9.8-15.1 2.6-29.6-.2-40.9-7.9-7.8-5.3-16.8-13.7-18.4-17.1-1-2.1-1.9-9.8-2.7-23.2-.8-13.4-1.7-20.7-2.6-22.2-1-1.5-1.4-5.5-1.4-12.8 0-10.1 1-13 2.3-6.5zm-688 8.7c-.5 12.6-2.3 28.8-4.9 43.9-1.3 7.8-2.4 14.4-2.4 14.8 0 .4-2.4 3.2-5.2 6.3-14.6 15.4-32.4 23.3-52.8 23.3-17 0-34.7-6.2-51.5-18.1-3.8-2.7-9.2-6.2-11.9-7.7-5.5-3.1-15-10.2-14.4-10.8.3-.2 4.5.4 9.4 1.3 26.5 4.8 57.7-.6 87.9-15.2 19.1-9.2 37.7-23.2 39.1-29.4.3-1.4 1.4-4.4 2.5-6.6 1-2.2 2.3-5.2 2.8-6.8.6-1.5 1.2-2.7 1.3-2.7.2 0 .2 3.5.1 7.7zm582.2-6.2c11.3 2.4 18.6 6.6 28.4 16.4 10.2 10.1 18 21.5 27.3 39.8 10.6 20.9 15.5 38.9 17.9 64.7 1.6 18.5-.1 40.3-5.3 64.1-1.3 6.2-8.9 28.4-11.7 34.5l-2.1 4.5.4-5.9c.4-5.4.1-6.8-3.6-14.8-2.7-5.8-4.6-8.8-5.7-8.8-1.9 0-10.3-12.2-11.1-15.9-.6-3-14.7-15.7-28-25.1-5.2-3.7-16.7-10.6-25.5-15.2-11.9-6.2-15.3-8.4-13.5-8.6 17.8-2 35.4-9.5 44.9-19.2 13.3-13.5 21.1-37.4 18.2-55.9-1.6-10.1-4.5-16.4-9.8-21.1-6.8-5.9-14-8.5-24.3-8.5-7.4 0-9.1.3-13 2.7-10.4 6.1-13.8 17.7-8.4 28.6 3 6.1 7.4 9.8 14 11.8 8.5 2.5 14.4 1.4 20.2-3.9l2.3-2.1-.7 5.9c-2 20-11.5 34-26.1 38.5-7.4 2.3-11 2.5-18.5.9-12.5-2.6-24.6-12.6-28.8-23.7-3.1-8.1-3.7-20.7-1.5-30.8 3.2-14.7 9.2-26 19.4-36.8 3.1-3.2 5-5.6 4.4-5.2-.7.4-1.3.5-1.3.2 0-.9 11.4-7.3 16-9 4.3-1.6 12.1-3.2 16.5-3.5 1.1 0 5.2.6 9 1.4zm-457.1 5.1c14.2 3.7 24 11.2 32.2 24.9 11.3 18.7 11.8 44.1 1.3 60.7-3.9 6-10.5 12-16.6 15.1-9.9 5-24.1 7-32.6 4.6-8.2-2.2-15-11.3-18.3-24.2-1.1-4.7-2.1-6.7-3.5-7-1.6-.4-1.9-1.5-1.9-6.1v-5.5l3.5 2.3c6.7 4.6 15.4 4.4 26-.4 12.4-5.6 17.3-14.3 14.1-25.3-2.9-9.9-11.7-15.1-25.6-15.1-10.2 0-15.8 2.3-21.9 8.9-8.3 9-11.6 19.2-11.5 35 .1 18 5.7 34.2 15.3 44.1 6.7 7 20.9 14 31.9 15.7l8.4 1.2-11.3 5.9c-31.8 16.5-53.9 34.1-69.8 55.6-6.6 8.8-17.1 29.1-17.1 32.9 0 1.4-.4 2-1.1 1.5-.7-.4-.9-2.2-.4-4.9.9-6.3-3.2-25.3-6-28.1-3-2.7-4.4-15.2-2.1-17 2.2-1.5 2.2-23.8.1-30.7-1.8-6-.7-16 2.4-21.2 1.1-1.9 2.5-6.1 3.1-9.3 5.9-32.9 28.8-75.1 54.5-100.9 12.5-12.4 29.7-17.1 46.9-12.7zm710.9 49.1c-10.5 15.1-17.3 23.4-29.3 35.3-20 20-37 30.1-61 35.9-8.8 2.1-24.3 2.7-31.8 1.1-7-1.5-16.3-7.9-20.2-13.8-3-4.6-3.1-4.9-2.9-15.5.2-15.8-.1-15.4 7.7-10.3 9.5 6.1 10.3 6.4 18.9 8.6 10.7 2.7 30.8 2.7 41.3.1 13-3.3 29.3-10.5 47.5-20.9 11.5-6.7 27.1-18.6 30.3-23.2 1.5-2.1 3-3.9 3.5-4 .4 0-1.4 3-4 6.7zM143 568.6c20.1 18.1 46.8 32.2 68.6 36.3 8.6 1.6 27.1 1.4 34.7-.4 8.2-1.9 21.7-8.1 28.7-13.1 3.2-2.3 5.1-3.2 4.8-2.3-.4.9-1 7-1.3 13.5-.8 13.3-1.8 15.9-8.2 21.1-9.6 7.7-24.4 13.3-35.1 13.3-14.7 0-37.3-7.5-51.8-17.2-10.1-6.8-45.4-43.6-45.4-47.4 0-.4 1 .1 2.2 1.2 1.9 1.7 1.9 1.5-.5-2.6-1.4-2.5-3.6-5-4.8-5.7-1.2-.6-3-2.8-4-4.7l-1.7-3.6 2.6 1.9c1.5 1.1 6.5 5.4 11.2 9.7zm705.5 79.7c18.2 11.3 37.2 28.3 46.7 41.7 10.5 14.8 17.4 33.4 18.5 49.2.6 8.2.4 8.9-2.2 13.4-3.6 6.1-17.5 19.9-25.4 25.3-3.4 2.4-6.4 4.1-6.7 3.8-.2-.2.3-2.4 1.1-4.8 2.3-6.4 4.5-20.2 4.5-27.8 0-16-5.4-37.4-13.9-55.7-7-14.9-19.9-35.3-21.4-33.8-.2.3-1.5-1-2.8-2.8l-2.3-3.3 2.4 2 2.3 2-2.4-3.7c-1.3-2-4-5.6-5.9-7.9-1.9-2.4-2.8-3.9-2-3.4.8.5 5.1 3.1 9.5 5.8zm-438.2 3.9c-19.7 23.1-32.5 43.6-42.1 67.8-6.6 16.4-8.4 24.6-8.9 40-.5 12.6-.3 14 2.1 20.9 1.4 4.1 2.5 7.6 2.3 7.7-.2.2-2.3-.9-4.8-2.4-5-3-20.7-19.2-25.9-26.7l-3.3-4.8 1.2-6.4c4.4-24.1 17.1-48.1 34.9-66.1 10.3-10.4 27.3-23.8 39.2-31 4.7-2.8 9.4-5.8 10.5-6.6 1.1-.9 2.2-1.6 2.3-1.6.2 0-3.2 4.2-7.5 9.2zm2.2 12.8c-1.6 2.6-3.5 18.8-3.5 29.8 0 35.3 15.3 81.8 33.8 102.6l3.6 4-3 .8c-3.2.9-34 1.2-35.4.3-.5-.3-4.4-1-8.6-1.5-9.8-1.3-14.6-4.2-17-10.7-1-2.5-1.7-5.9-1.7-7.7.1-1.7.1-6.3 0-10.1-.5-22.6.6-31.5 6.2-50.4.6-1.9.8-4.5.4-5.9-.4-1.7.1-3 1.6-4.5 1.2-1.2 2.8-3.1 3.6-4.2 1.4-1.9 1.4-1.9 1.5-.1.1 5.2 8 7.6 12 3.6 2.6-2.6 2.5-5.8-.2-8.7-2.5-2.7-6.4-3-9.6-.8l-2.2 1.6 2-4.6c1.1-2.5 3.1-6.5 4.4-8.8 1.4-2.3 3-6.5 3.7-9.2 1.2-4.6 7.3-16.5 8.5-16.5.3 0 .2.4-.1 1zm434.1 12c4.3 8.7 8.7 20.1 8 20.7-.2.3-2-.3-4-1.2-2-1-5.1-1.5-6.8-1.3l-3.3.3.2-9.5c.1-6.3-.1-8.5-.7-6.5-.7 2.6-.8 2.3-.8-2 0-2.8.2-4.2.5-3.2.7 2.7 2.3 1 2.3-2.5 0-3.9.1-3.8 4.6 5.2zm14.2 42.3c.7 2.6 1.7 10.1 2.4 16.7 1.9 19.1-1.5 39.1-9 52.4-2.8 5.1-5.6 6.7-13.6 8-2 .3-5.5 1-7.8 1.6-6.1 1.4-30.6 2.3-35.1 1.3l-3.8-.8 7.1-9c3.9-5 8.4-11.3 10-14 1.6-2.8 3.8-6.1 4.9-7.5l2-2.5-.5 3.6c-1.2 7.1 2.9 14.5 9.7 17.9 5.6 2.9 11.4 2.6 18.8-1.1 5.2-2.6 6.7-3.9 8.2-7.3 4.1-9 1.4-16.9-7.1-21.2-9.1-4.6-17.8-4.3-23.6.9l-3.5 3 2.6-5.9c1.6-3.7 2.4-6.7 2-8.4-.3-1.6.4-5.1 1.9-9 1.5-3.8 2.5-5.6 2.6-4.2 0 1.2 1.7 4.1 3.8 6.3 5.2 5.6 10.4 6.2 18.2 2.2 4.4-2.2 5.7-3.5 6.6-6.3 2.3-6.9-1.5-12.8-9.9-15.4-4-1.2-6-1.4-8.7-.6-1.9.5-3.5 1-3.5 1-.1 0 .1-1.6.3-3.6.3-2.8.1-3.5-.8-2.9-1 .6-1.2.1-.7-2.5.4-1.8.7-3.9.7-4.6 0-1.9 4.4-1.8 6 .1.7.8 2.2 1.5 3.3 1.5 2.5 0 10.4-3.7 11.4-5.3.7-1.1 2.3 4 5.1 15.6zm45 69.2c-1.8 6.9-4.7 8.5-10.8 5.8l-4.4-1.9 8-6.7c7.1-6 7.9-6.4 8.2-4.4.1 1.2-.3 4.4-1 7.2zm-562.3 8.7c-2.2.4-5 1-6.2 1.3-2.3.5-2.4.3-4.9-9.9-.7-2.8-.6-2.8 7.2 2.5l7.9 5.3-4 .8zm574.1 21c11.6 15.7 13.7 27.8 4.8 27.8-6.7 0-12.4-8.3-12.4-18.1 0-2.1-.7-4.2-1.5-4.9-2.1-1.7-1.6-5.6.7-5.2 1.1.2 1.8-.7 2.3-2.8.4-1.6.8-3 1.1-3 .2 0 2.5 2.8 5 6.2zM830 817c-1.7 2.2-3.5 4.2-4 4.5-.8.5-9.6-3.7-11.4-5.6-.6-.5.5-.9 3-1 2.1 0 5.7-.4 7.9-.8 7.8-1.6 8-1.5 4.5 2.9zm-503.2 10.9c-.4 11.4-2.4 15.6-9.7 20.2-7.2 4.6-11 3.4-9.5-2.9 1-4.1 5.3-12.2 9-17.1 1.9-2.4 3.4-5.1 3.4-5.9 0-.9 1.2-2.9 2.7-4.4 2.4-2.5 2.8-2.6 3.6-1.2.5.9.7 6 .5 11.3zm87.5-10c7 .1 8.2.8 4.4 2.7-1.2.6-3.7 1.9-5.4 3-3.7 2.2-5.2 1.6-9.1-3.4l-2.4-3.1 2.9.3c1.5.2 5.8.4 9.6.5zM835 849.8c18.1 19.7 22.6 52.1 8.8 62.5-5 3.8-11 5.3-14.8 3.7-6.4-2.7-13.1-14.6-14.5-26.1-.8-6.7 1.4-20.2 5-30.8 1.6-4.9 2.2-7.8 1.5-8.6-.6-.7-.1-2.3 1.5-4.7 3.2-4.8 5-4.2 12.5 4zm-425.1 0c8.5 16.6 10 40.8 3.4 53.8-3.3 6.5-9.8 13.4-14.8 15.8-7.6 3.6-15-.8-18-10.7-4.2-14.1.8-31.6 13.9-48.5 3.1-4 5.6-7.9 5.6-8.7 0-1.3 3.4-3.9 5.2-4 .3 0 1-.3 1.4-.8 1.1-1.1 1.2-1 3.3 3.1z"/><path d="M934 189.8c-13.5 5.1-20.2 14.1-20.3 27.2-.2 11.4 5.3 20.6 15.4 26 8.1 4.3 17.1 4.5 27 .6 8.6-3.5 13.2-7.4 16.5-14.3 5.6-11.3 2.4-25.5-7.3-32.9-9.1-7-22.9-9.9-31.3-6.6zM891.8 235.1c-2 .6-5.5 2.6-7.7 4.6-11.4 9.7-11.6 25.5-.5 35.3 7.7 6.7 16.1 7.8 26.6 3.5 10.7-4.4 15.8-11.1 15.8-21.1 0-4.7-.3-5.7-1.9-6.1-1.1-.3-2.4-1.7-3-3.2-1.6-3.7-7.2-9.6-11.1-11.6-4-2.1-13.2-2.8-18.2-1.4zM339.4 196.2c-5.4 1.7-12.5 8-15.8 13.8-2.7 4.8-3.1 6.5-3.1 13 .1 12.1 5.6 20.4 17.3 25.8 7.9 3.6 16.3 2.9 26.4-2.1 11.2-5.5 15.8-12.5 15.8-24 0-7.8-3.4-15.3-9-19.7-8.3-6.6-22.7-9.7-31.6-6.8zM382.2 239.9c-8.2 2.1-15.3 10-16.7 18.7-1.4 8.8 4.1 19.1 12.6 23.4 7.8 4 22.5 1.4 29.8-5.3 7.2-6.6 8-19.2 1.8-28.1-4.2-5.9-19.4-10.7-27.5-8.7zM1001.2 483c0 1.4.2 1.9.5 1.2.2-.6.2-1.8 0-2.5-.3-.6-.5-.1-.5 1.3zM809.4 440.8c-2.8.4-5.1 2.9-5.9 6.4-.6 2.2-.1 3.3 2.3 5.8 3.6 3.5 5.4 3.7 11.6 1 7.3-3.1 7.4-8.2.2-11.4-4.3-1.9-5.8-2.2-8.2-1.8zM833.3 441.9c-3.7 2.3-6.3 6.8-6.3 10.9 0 3.5 3.7 9.2 7 10.9 7.6 3.8 22-2.9 22-10.3 0-3.3-1.7-7.4-3.1-7.4-.7 0-2.8-1.2-4.7-2.6-4.6-3.6-10.7-4.2-14.9-1.5zM868 447c-4.4 1.1-10.5 7.5-12.1 12.9-2.1 7 2.1 16 9.2 19.6 7.2 3.8 22.2.1 26.9-6.5 3-4.2 3.7-10.7 1.6-14.9-.9-1.7-2.1-2.9-2.6-2.6-.5.3-1.7-.6-2.6-2-3.5-5.4-12.8-8.4-20.4-6.5zM423 445.8c-4.4 2.1-7.4 7.9-6.5 12.2 1 4.4 5.1 8.8 9.5 10.1 3.2 1 4.7.9 9-.7 6.5-2.3 8.7-4.5 9.6-9 1.1-5.9-.4-8.6-6.6-11.6-6.4-3.2-10.2-3.5-15-1zM454.3 445c-4.7 1.9-5.6 7.8-1.8 11.5 2.5 2.6 7.8 3.4 9 1.5.3-.6 1.4-1 2.4-1 2.6 0 5.3-3.4 4.9-6.2-.2-1.6-1.7-3-4.8-4.5-4.9-2.4-6.4-2.6-9.7-1.3zM753.6 518.5c-5.5 1.9-8.6 4.4-12.2 9.7-5.7 8.4-5.3 18.1 1.1 26.9 6.9 9.6 19 12 31.3 6.4 14-6.3 19.1-20.6 11.5-32.2-3.1-4.8-7.3-7.7-14.6-10.3-6.6-2.3-11.6-2.5-17.1-.5zM710.9 543.9c-3.4 3.4-3.9 4.4-3.9 8.6 0 4.2.5 5.2 3.9 8.6 3.4 3.5 4.4 3.9 8.7 3.9 3.2 0 6.3-.8 8.9-2.3 3.4-1.9 3.9-2.7 4.1-6.2.2-2.2-.2-6.1-.8-8.7-1-4.2-1.6-4.8-5.3-6.2-7.1-2.8-11.2-2.2-15.6 2.3zM495.3 520.1c-11.5 2.1-18.7 10.9-18.8 23 0 5.6.4 7.3 3 11.5 1.9 3 4.9 6 7.9 7.9 4.3 2.6 5.9 3 12 3 6 0 8.2-.5 13.8-3.3 9.3-4.5 12.8-9.8 12.8-19.2 0-5.5-.5-7.3-2.8-11.1-4.9-7.7-18.4-13.4-27.9-11.8zM535.3 542.1c-4.5 1.3-8.3 7.1-8.3 12.6 0 4.4 3.1 9.2 7.3 11.5 4.7 2.4 14.3.2 19.5-4.5 1.7-1.6 2.2-3.2 2.2-6.7 0-5.9-2-8.6-8.4-11.6-5.5-2.6-7.3-2.7-12.3-1.3zM557.6 564.2c-3.6 5.1-.7 10.8 5.3 10.8 4.6 0 7.1-2.4 7.1-6.7 0-3.9-2.8-6.3-7.3-6.3-2.6 0-4 .6-5.1 2.2zM901.9 602.3c-19.9 7.4-26.4 30.6-12.8 46.1 9 10.2 22.6 12.6 36.2 6.3 10-4.7 13.2-8.5 14.2-17.3.7-6 1-6.5 1.6-3.9.5 2 .7.3.6-5.1-.2-7.5-.5-8.5-3.9-13.7-3.2-4.7-4.9-6.1-11.4-9.4-8.7-4.3-18-5.4-24.5-3zM919.4 664.4c-3.9 1.7-7.4 7.3-7.4 11.7 0 9.6 11.2 16 19.9 11.5 4.8-2.5 6.2-5.8 5.9-13.4l-.3-6.7-4-1.9c-5.3-2.5-10.3-2.9-14.1-1.2zM330 608.1c-5.5 2.5-11.4 8-14.3 13.4-1.7 3.2-2.2 5.7-2.2 12.5 0 10.1 1.8 14.3 9 20.9 6.2 5.7 10.5 7.4 19 7.5 13.4 0 25.2-7.1 30.3-18.2 2.1-4.6 2.4-6.3 1.8-11.5-1.2-11.4-5.9-17.7-18-23.7-5-2.6-7.1-3-13.5-3-5.5 0-8.9.6-12.1 2.1zM313.9 672.9c-3.2 3.2-3.9 4.6-3.9 7.8 0 7 5.2 12.2 12.2 12.3 16.3.1 23-14.8 9.6-21.6-3-1.5-6.4-2.4-9.4-2.4-4.1 0-5.1.5-8.5 3.9zM391.5 727.5c-3.1 3.2-3.5 4.2-3.5 8.7 0 4.5.4 5.4 3.9 8.9 3.2 3.3 4.5 3.9 7.9 3.9 2.3 0 5.1-.5 6.4-1.1 3.5-1.6 6.8-7 6.8-11.3 0-7.9-5-12.6-13.4-12.6-3.9 0-5.1.5-8.1 3.5zM396.3 759.5c-4.1 1.7-8.9 8.4-9.8 13.4-1.7 10.3 9.3 21.3 19.9 19.7 2.2-.4 6.6-1.9 9.6-3.4l5.5-2.8.2-7.9c.3-6.8 0-8.6-2-12-4.2-7.5-15-10.7-23.4-7z"/></g></svg>