<svg xmlns="http://www.w3.org/2000/svg" width="1222.667" height="1706.667" version="1.0" viewBox="0 0 917 1280"><g fill="#ff5722"><path d="M639.5 1.1c-22.5 3.3-44.7 14.4-61.6 31-15.8 15.4-28.9 42-30.6 61.8l-.6 7.6L532 116c-22.7 22.4-36 41.5-47.3 68-6.3 14.8-9.5 25.3-18.2 59.7-13.5 53.6-21.1 71.5-40.7 94.9-18.8 22.4-49.5 42.7-87.9 58.2-6.9 2.8-24.5 9-39 13.7-70.1 22.9-84 28-105.1 38.6-32.1 16.1-58.9 35.7-86.3 63.3C47.5 572.8 12.3 649.8 1.8 744c-1.9 17.7-1.6 68 .6 86.5 9.5 80.7 37.1 145.1 84.8 197.5 50.6 55.5 120.2 87 215.8 97.4 33.5 3.7 43.7 4 147.5 4.1 104 .1 110.9.3 143.5 4 57.9 6.7 110 21.9 161 47.1 48.8 24 87.6 51.2 126.3 88.3 6.4 6.2 11.7 10.9 11.7 10.3 0-.5-1.8-6.2-4-12.6-13.2-38.3-36.8-75.5-66.8-105.2-50.1-49.8-111.7-76-200.2-85.1-23.7-2.4-100.2-2.4-146.5.1-125.2 6.7-190.8.5-254.2-24C149 1024.5 94.6 967 68.5 890.8c-12.2-35.5-17-65.6-17-106.8 0-42 5.4-75 18.4-113.2 17.8-52.1 43.5-93.3 82.6-132.3 24-24 45-40.1 72.7-55.9 20.7-11.7 41.3-20.5 84.4-36.1 72.9-26.4 102.7-42.6 130.9-70.9 26.3-26.4 37.3-50.9 51.5-114.5 13.2-59 24.7-92.8 44.9-132.7 17.2-33.8 30.5-55 44.3-70.4 20.5-22.9 47.2-40.9 79-53.1C665.1 3 669 1.2 669 .7c0-1-21.9-.7-29.5.4z"/><path d="M687.5 4.4c-23 4.6-41.7 14.5-57.5 30.5-24.2 24.3-35 55.3-31.4 90 .4 3.3 1 6.1 1.3 6.1.3 0 3.1-6.9 6.1-15.3 17.1-47.8 43.6-80.5 86.5-106.6l9.9-6.1-4.4.1c-2.5.1-7.2.7-10.5 1.3zM701.5 14.9c-6.9 4-17 14.8-20.1 21.6-8 17.5-4.6 36.1 9.7 51.8 4.9 5.4 7.7 7.5 14.2 10.6 4.5 2.2 10.5 4.3 13.2 4.6l5 .7-7.1-5C700.2 87.7 694 75.5 694 55.5c0-10.1 3.1-21.1 9.4-33.1 3-5.7 4.9-10.4 4.3-10.4-.7 0-3.4 1.3-6.2 2.9zM731 106.6c15.4 8.6 28.5 18.6 35.6 27.3 10.2 12.2 16.7 29.5 22.9 60.2 3.3 16.3 3.5 16.9 13.4 37.7 11.6 24.3 13.8 34.3 10.6 48-3.1 13-11.4 25.6-22.9 34.8-8.5 6.8-10 7.5-31 15.9-26.6 10.4-33.6 14.6-44.7 26.1-8 8.4-12.1 14.3-16.4 23.8-11.7 25.1-10.3 52.8 3.6 76.3 3.4 5.8 14.1 17.3 15.9 17.3.6 0 .2-1.7-.9-3.8-4.8-9.4-9.1-30.9-9.1-45.2.1-25.4 7.4-43.7 23.9-60 11-10.8 16.1-13.8 38-22.1 20.5-7.7 28.1-11.4 36.7-17.5 7.1-5 15.3-13.7 19-20.1 1.7-2.8 3.2-4.2 4.1-3.9.7.3 4.2 1.3 7.6 2.2 19.6 5 41.7 16.4 59 30.4l8.9 7.1-4.3-5.1c-12.5-14.8-39.9-33.1-62.2-41.5-3.4-1.2-6.3-2.7-6.4-3.2-.6-1.7 10.9-2.3 22.8-1.3 17.7 1.6 35.6 6.5 51.2 14.1 5.9 2.8 1.9-.3-6.3-4.9-16.1-9.1-34.4-15.1-53.6-17.6l-9.9-1.3 4.6-2.1c12.7-5.9 33-7.3 47.2-3.3 7.6 2.1 15.8 5.8 22.5 10.2 5.2 3.4 3.7 1.4-2.5-3.4-18.8-14.4-42.4-18.8-69.5-13.1-2.8.6-2.8.6-2.8-4.6 0-7.4-4.4-19.6-14.4-39.9-6.5-13.3-10.4-22.9-16.1-40.3-10.4-31.7-19.1-47.8-33.4-61.2-6.2-5.7-21.5-13.3-34.5-17-12.5-3.6-14.4-3.3-6.6 1z"/><path d="M749.8 172.1c-4.9 1.4-11.7 7.4-13.9 12.3-5.8 12.8 2.6 29.2 19.3 37.6 5.7 2.8 12.8 4 12.8 2.2 0-.5-1.3-2.1-2.9-3.6l-3-2.9 1.9-2.6c2.4-3.3 4-14.9 3-22.1-.4-3-.6-5.7-.4-5.8.6-.8 3.2 5.6 3.9 9.5.8 4.9 1.4 5.2 4.1 2.2 1.4-1.6 1.9-3.6 1.9-8-.1-4.8-.6-6.6-3.1-10.1-5.2-7.5-15-11.1-23.6-8.7zm5.5 13.1c-.4 1.3-.8 7.6-.8 14v11.7l-2.2-2.7c-7.2-8.6-8.1-17.4-2.3-22.5 3.8-3.4 6.5-3.7 5.3-.5zM663.6 245c-22.1 2-43.8 7.8-62.7 16.6-5.5 2.6-9.8 4.9-9.6 5.1.2.2 3.7-1.2 7.8-3 23.8-10.8 49-15.4 79.9-14.4 34.7 1.1 65.7 8.7 96 23.5l11.5 5.6-26.5.7c-14.6.3-31.7 1.2-38 1.8-52 5.3-100.5 17-138.5 33.6-12 5.2-24.5 11.3-24.5 11.9 0 .3 4.9-1.8 11-4.5 26.8-12 59.9-21.3 97.3-27.4 25.7-4.2 42-5.6 71.2-6.1l28-.4-12 2.9c-50.8 12.4-99.7 34.7-131.5 60.1-15.4 12.3-30.7 29.3-39.7 44-8 13.1-8.3 14.9-.6 3 19-29.1 48.7-52.6 90-71.4 33.1-15.2 68.3-25.3 107.6-31.1 8.7-1.2 16.1-2.5 16.3-2.8.3-.3.1-2.7-.4-5.3-1-4.5-.9-5 1.9-8.5 1.6-2 2.9-4 2.9-4.3 0-1.6-25.5-12.4-42.5-18-29.3-9.6-66.5-14.1-94.9-11.6zm128.8 36.6c2.3.9 2 2.4-.4 2.4-1.1 0-2-.7-2-1.5 0-1.7.2-1.8 2.4-.9zM719 478.4c0 .3 2.5 4.4 5.6 9.2 18 27.6 24.5 52.2 19.9 76.1-4.1 21.2-14 42-36.2 75.9-24.4 37.3-51.9 84.9-62.9 109.1-12.1 26.4-17.5 55.9-16.1 87.8.7 14.8 2 22.3 10.3 57.4 8.2 34.7 19.8 65.3 29.8 78.4 1.9 2.5 3.1 4.9 2.6 5.2-1.9 1.2-.9 2.2 6.4 6.9 14.7 9.3 20.9 19.4 20.9 34.1 0 14-6.4 25.1-19.8 33.9-3 2-5.7 4.1-6.1 4.7-1.2 2 2 3 7.7 2.6 20.2-1.6 36.9-25.8 33.1-47.9-2.2-12.7-8.9-23.2-19-29.7-4.8-3-15.7-6.5-18.8-5.9-1.3.2-2-.9-2.9-4.2-.7-2.5-2.9-9.7-4.8-16.1-7.7-25-11.6-51.7-12.3-84.9-.7-27.7.4-39.7 5.5-60.5 10.3-41.5 30.5-84 73.1-153.5 7.9-12.9 15.9-27.1 17.7-31.5 8.8-20.7 13.9-54.6 11.4-75.3-3.5-28.6-20.3-56.7-42.3-70.7-1.6-.9-2.8-1.5-2.8-1.1zM543.2 741.2c-7.8 15.8-10.9 24.9-15.2 44.3-4.1 18.4-5.9 31.3-7.1 52.3-3.3 53.8 8.1 99.9 34.5 140.2 12.6 19.2 30.3 38.1 44.1 47.1 7.9 5.2 24.5 14.3 24.5 13.5 0-.3-3.7-5.6-8.2-11.8-28.9-39.8-42.2-66.3-54.2-108.3-16.2-56.9-18.9-93.2-12.6-166.9 1.1-13.1 1.8-24.1 1.6-24.3-.2-.3-3.6 6-7.4 13.9zM282.5 775.2c-22.1 2.5-44.6 8.8-63 17.8-12 5.9-17.6 10.2-15.8 12.1 1.4 1.4 8.5.6 22.8-2.6 9.7-2.2 37.6-3 51.6-1.6 24.2 2.5 50.8 9.6 68.3 18.1 28.1 13.7 78.2 53.8 80.3 64.2.6 3 4 6.1 5.6 5.1 2.9-1.8-4.4-25.9-13.3-43.8-3.2-6.6-8.8-15.9-12.4-20.6-12.1-15.9-30.5-31.4-47.5-39.9-16.7-8.3-48.6-12-76.6-8.8zM195.3 996.6c-1.7 1.1-1.4 1.6 2.9 5.7 6.5 6.3 23.5 17.3 36.9 24 21.6 10.6 49.8 18.3 83.1 22.6 40.7 5.3 65.6 6.4 133.3 6 128.3-.8 119.7-1.2 141.9 7.3 16.8 6.4 18.2 5.7 5.1-3-22.2-14.9-48-19-150-24.2-112-5.6-169.1-13.8-225.2-32.5-19.5-6.5-25.6-7.8-28-5.9z"/></g></svg>