<svg xmlns="http://www.w3.org/2000/svg" width="500" height="500" version="1.0" viewBox="0 0 1066 1280"><g fill="#9c27b0"><path d="M655 198.4c-15.6 6-29.7 16.3-48.7 35.7-22.5 23-40.8 50.9-48.2 73.6-8.4 26.2-10.3 60.3-5.2 91.8.6 3.3 2.2 13.6 3.7 22.8 10 64.7 29.2 95.1 64.9 103.4 12.1 2.7 40.3 2.5 54.2-.5 31.9-6.9 61.6-22 88.1-44.7 25.7-22.1 42.7-47.6 49.5-74.5 2.9-11.5 3.1-42.7.3-56.5-10.1-51.3-39.3-98.6-79.4-128.7-9.8-7.4-29-17-40.7-20.4-11-3.2-32.6-4.3-38.5-2zM401.3 202.4c-20.2 3.9-39.6 14.6-58.3 32.2-26 24.5-48.3 63.4-58.5 101.9-5.1 19.6-5.9 25.8-5.9 48.5 0 20 .2 22.2 2.6 31.7 9.3 35.8 35.5 70.1 71.9 94 19.3 12.6 40.9 21.6 60.2 24.9 14.1 2.5 36.6 1.5 47.3-1.9 31.3-10.2 47.1-40.4 56.4-107.2 1.1-8.3 2.6-18.6 3.3-23 .7-4.9 1.2-18.3 1.2-34.5-.1-25.1-.2-27.2-2.8-39.5-3.6-16.9-6.5-25.4-13.7-40-17.4-35.3-50.5-72.7-74.7-84.2-8.5-4.1-17.8-5-29-2.9zM183 490.5c-24.8 6.3-44.4 27.5-58.5 63-7.2 18-13.4 45.4-15.6 68-1.8 18.6-.7 60 2.1 75 3.9 21.7 7.7 33.9 15.6 50.1 15.5 31.4 39 47.4 69.7 47.4 19.9 0 38.8-5.6 60-17.9 35.5-20.3 66.6-56.6 77-89.6 4.5-14 5.2-19.2 5.2-37-.1-18.9-1.3-26.6-7.1-44.3-17.1-52.4-65.3-99.8-114.9-113.2-10.2-2.8-26-3.5-33.5-1.5zM844 507.5c-16.5 3.3-38.2 13.3-54.9 25.3-17.2 12.3-36 31.7-47.9 49.3-14.1 21-20.8 40.1-21.9 62-2 40.5 17.6 81.4 57.4 119.9 32.7 31.7 70.2 52.6 105.5 59 27.3 4.9 44.6.7 59.3-14.5 3.9-3.9 8.9-10.6 11.3-14.7 5.7-10 10.8-24.6 11.7-33.3.3-3.9 1.3-9.9 2-13.5 3.7-18.2 4-21.9 4-50 0-29.7-.6-36.3-5.6-62-2.7-13.9-10.1-39.6-14.5-50.7-9.4-23.6-19.8-40.9-33.5-55.8-6.8-7.5-10-10-17-13.8-12.2-6.6-21.2-8.7-36.8-8.6-6.9 0-15.5.7-19.1 1.4zM526.4 706.1c-25.1 1.6-59.5 7.9-77.4 14.1-15.7 5.5-25.7 11.9-49 31.8-17.5 14.9-23.2 19.1-37.8 27.7-16.8 9.9-53.5 30.2-91.2 50.3-38.7 20.6-43.3 23.5-51.3 31.9-7.6 8.1-14.5 21-17.9 33.6-3 11-3.3 42.5-.5 55.5 10.9 50.8 63 78.4 169.7 89.9 29 3.2 50.2 4.4 115 6.7 23.4.8 49.5 1.9 58 2.5 25.8 1.6 121.1 2.3 141.8 1 55.1-3.5 97.9-13.1 131.7-29.6 17.2-8.3 29.8-17 41.6-28.3 15.5-14.9 19.8-26 18.6-49.2-1-19.9-8.4-41-19.9-56.5-11-14.8-25.5-26.3-61.1-48.6-41.7-25.9-47.6-30.9-77.3-65.6-29.2-34-42.3-44.1-68.9-53.1-35.6-12.1-78.7-17-124.1-14.1z"/></g></svg>