<svg xmlns="http://www.w3.org/2000/svg" width="1706.667" height="1706.667" version="1.0" viewBox="0 0 1280 1280"><path fill="#ff5722" d="M371 166.7c-82.9 3.1-162.3 40.1-213 99.1-41.1 47.8-62.5 105.1-64.7 172.7-2.9 91.1 33.1 181.5 106.2 267 49.5 57.8 102.2 104.9 220.5 197 19 14.8 42.2 33 51.5 40.4C559.9 1013 605 1059.3 628.4 1104l5.3 10.2 4.7-8.8c11.5-21.6 28.7-43.5 54.1-69 34.8-34.9 59-54.7 153.8-126.2 116.1-87.4 153.4-118.5 203.2-169.3 87.8-89.5 131.5-176.8 136.4-272 3.3-64-11.4-121.9-43.3-170.4-9.9-15.1-19.6-26.9-33.4-40.8-74.4-75.2-191.3-105-294.5-75.1-61.9 18-113.3 57.6-145.7 112.3-10.5 17.8-20.4 40.2-26 59l-2.2 7.4-5.9-17.7c-20.1-61-57.8-108.7-110.3-139.9-28.6-16.9-63.1-28.9-98.6-34.2-9.3-1.4-42.2-3.7-46-3.3-.8.1-4.9.3-9 .5z"/></svg>