<svg xmlns="http://www.w3.org/2000/svg" width="500" height="500" version="1.0" viewBox="0 0 1280 1280"><g fill="#03a9f4"><path d="M631.9 359.1c-6.3 3.8-6.9 5.7-6.9 23.8 0 8.9-.3 16.1-.6 16.1s-3.1-2.1-6.2-4.6c-7.3-6-9.4-6.7-13.5-5-5.4 2.2-8.7 7-8.7 12.4v4.7l14.5 14.5 14.6 14.6-.3 9.6-.3 9.6-13.8-10.4c-12-9.1-14.2-10.4-17.7-10.4-2.1 0-5 .5-6.4 1.1-4.6 2.2-7.1 10.8-4.3 15.5.7 1.1 10.5 10.5 22 20.8l20.7 18.8v7.4c0 5.8-.3 7.3-1.2 6.8-.7-.4-10.6-7-22-14.6-14.2-9.4-21.6-13.8-23.5-13.8-3.8 0-8.9 3.3-10.8 6.9-1.9 3.8-5.7 19.3-8.9 37-1.4 7.3-2.7 13.5-2.8 13.7-.2.1-2.8-1.8-5.7-4.4l-5.3-4.7 2.2-28.7c2.3-30.9 2.1-34.2-2.3-37.3-1.2-.9-4.3-1.5-7.3-1.5-10.6 0-13.3 6-15.9 35.3l-.7 6.7-7.1-6.3-7.1-6.4.3-22c.3-21.9.2-22-2.1-24.8-1.8-2-3.6-2.8-7.1-3.2-9.3-1.1-13.2 2.6-15.7 14.8l-1.5 7.7-12.2-11.4L456 436h-6.4c-5.4 0-6.9.4-9.4 2.5-3.4 2.8-6.2 8.2-6.2 11.8 0 3.3 3.9 8.8 13.8 19.6 4.5 4.9 8.2 9.2 8.2 9.5 0 .3-1.9.6-4.2.6-5.9.1-12.3 3.2-14.2 6.9-3.4 6.4-1.1 16.2 4.2 18.2 1.8.7 8.4.7 21-.1l18.3-1.1 6.7 5.9c11.9 10.5 11.8 9.8.5 11.1-21.8 2.7-27.3 5.5-27.3 13.7 0 5.6 4.2 13.1 7.8 14.1 1.3.3 13.7-.8 27.5-2.4l25.2-3 5 4.8c2.7 2.7 4.6 5.1 4.3 5.5-.4.3-5.7 1.4-12 2.5-25.7 4.4-36.1 8.1-38.5 13.7-2.1 5.1-1 8.9 5.5 18.3 3.2 4.6 10.2 14.8 15.5 22.6L511 625l-7.7-.1h-7.8l-20.3-23.4c-22-25.5-22.8-26.1-30.7-23.5-4.5 1.5-6.5 5.2-6.5 12.2 0 5.3.1 5.5 11.6 19.8l11.5 14.5-9.5.3-9.5.3-16.3-16.6c-14.5-14.7-16.7-16.5-19.6-16.5-6.7 0-13 5.4-13.9 11.7-.5 3.7-.1 4.4 6.7 12.6l7.1 8.7h-19.2c-18 0-19.4.1-23.1 2.2-5 2.8-6.8 6.3-6.8 12.8 0 5.8 1.8 9.9 5.6 12.9 2.5 1.9 4 2.1 19 2.1 9 0 16.4.3 16.4.6s-1.4 2.5-3.1 4.9c-2.9 4-3.1 4.9-2.7 10.6.6 7.8 3.5 10.9 10.1 10.9 4.1 0 4.7-.4 17.7-13.5l13.5-13.5h10.7c6 0 10.8.3 10.8.6 0 .4-2.2 3.6-4.9 7.3-8.5 11.7-12.1 17.5-12.1 19.9 0 3.4 4.1 9 7.8 10.8 7.4 3.5 12.3-.2 34.6-26.9l9.8-11.7h6.5c5.3 0 6.4.3 5.9 1.5-.3.8-5.3 9-11.2 18.2-5.9 9.2-11.1 18-11.6 19.4-1.5 4.3 1.2 9.4 6.3 12 5.6 2.8 22.9 7.1 40.1 9.9l13.7 2.3-4.7 5.4-4.7 5.5-10-.6c-5.5-.4-18.5-1.4-29-2.2-20.8-1.7-24.6-1.4-28.1 2.1s-3.5 12.5 0 16 14.4 6.3 35.9 9l4.7.6-6 6.7-6 6.7-23.3-.4-23.4-.3-2.6 3.2c-2.1 2.4-2.7 4.2-2.7 7.8 0 9.5 5.8 14.2 17.4 14.2 3.6 0 6.6.3 6.6.7 0 .5-5.1 6.2-11.2 12.8-14.7 15.9-18.8 21.1-18.8 24.3 0 3.9 7.5 16 10.3 16.4 6.8 1.2 16-4.4 29.4-17.8l9.2-9.1 1 4.9c2.1 9.5 5.8 13.8 12 13.8 4.1 0 11.9-4.7 12.7-7.6.3-1.1.2-9.6-.3-18.7l-.8-16.7 7.3-8c4.1-4.4 7.8-8 8.3-8 .5 0 .9 1.9.9 4.2 0 10.8 3.2 23.2 7 27 3.8 3.7 11 4 16.1.5l3.4-2.3-.2-13.5c-.1-7.4-.9-19.2-1.7-26.4l-1.4-13 5.1-5.9 5.1-5.9 2.3 13.4c4.5 26 8 34.6 14.8 36.9 2 .7 4.8.9 6.2.5 1.4-.3 10.3-5.9 19.7-12.3 9.4-6.5 18.8-12.8 20.9-14.1l3.7-2.3v16.9l-3.9 2.6c-11.6 7.7-38.8 32.6-39.7 36.4-1.6 6.3 5.4 16.3 11.4 16.3 2 0 6.6-2.9 15.6-9.8 7-5.3 13.6-10.3 14.7-11.1 1.8-1.3 1.9-1 1.9 8v9.4L610.5 849 596 863.5v6.2c0 7.5 2.4 11 8.2 12 5.5.8 8.1-.2 14.5-5.8l5.8-5.1.5 21.9c.5 23.1.8 24.4 5.6 28.2 2 1.6 4.1 2.1 8.6 2.1 7 0 11.1-1.9 13.8-6.3 1.8-2.9 2-5.1 2-23.5v-20.3l4.5 3.1c9.1 6.3 18 7.5 22 3 1.1-1.3 2-4.2 2.3-7.6l.5-5.5-14.7-14.7-14.6-14.8v-21.5l13.8 10.6c14.5 11 16.6 11.9 22 9.1 4.1-2.2 7-5.7 7.7-9.7.9-4.7-.2-5.9-24.9-27.9l-18.5-16.5v-6.3c-.1-3.4.2-6.2.5-6.2s8.4 5.4 18.1 12.1c9.6 6.6 19.1 12.7 21 13.6 6.5 2.7 11.9.2 15.6-7.2 1.8-3.6 6.1-22 7.8-33 1.7-11.5 1.8-11.6 7.6-6.2l4.9 4.6-3 25.4c-1.6 14-2.6 26.5-2.3 27.8.9 3.6 8.5 7.9 13.8 7.9 7.6-.1 10-3.8 12.5-18.7.8-5.4 1.8-11.6 2.2-13.7l.7-3.9 7.8 7.4 7.9 7.4-1.1 17.3c-1.5 21.7-.9 25.1 4.6 28 3.1 1.7 9.9 1.5 13.4-.4 3.7-1.9 6.8-8.3 6.9-14.2 0-2.3.3-4.2.6-4.2s5.6 4.7 11.7 10.5c15.7 14.7 19.9 17.7 24.1 17.7 6.3 0 15.6-7.2 15.6-12 0-6.2-7.7-17.5-23.1-33.7-3.8-4-6.9-7.5-6.9-7.9 0-.3 2.3-.6 5.2-.6 7.1 0 13.1-3 15.3-7.7 2.5-5.1 1.5-12-2-15-2.5-2.2-3.1-2.3-24.9-2.3h-22.3l-6.1-6.8-6.1-6.9 12.7-1.1c22.3-2 29.2-5.5 29.2-15 0-7.1-3.2-11.6-8.5-12-3.8-.3-42.9 2.2-52.7 3.4-4.7.6-4.9.5-10.5-4.9-5.5-5.3-5.7-5.6-3.3-6.1 1.4-.2 10.6-2.1 20.5-4 21.2-4.1 27.3-5.9 30.9-8.7 2.4-1.9 2.6-2.7 2.6-9v-7L785.1 673c-6-8.7-11.2-16.3-11.5-16.9-.5-.8 1.7-1.1 7.1-1.1h7.8l4.6 6.2c2.5 3.5 9.6 12.3 15.9 19.5 12.4 14.6 14.3 15.7 22.1 13.4 4.8-1.5 6.9-5.1 6.9-12 0-5.2.1-5.1-11.7-20.1-2.4-3-4.3-5.8-4.3-6.3 0-.4 5.1-.7 11.4-.7h11.3l2.6 3.9c1.4 2.1 6.8 8.2 11.9 13.5 8.7 9 9.6 9.6 13.2 9.6 7.2 0 13.6-6.5 13.6-13.8 0-1.9-1.3-4.7-3.5-7.6-1.9-2.6-3.5-4.8-3.5-5.1 0-.3 7.8-.5 17.3-.5 16.9 0 17.3-.1 21-2.6 4.4-2.9 5.7-5.7 5.7-12 0-5.1-1.6-8.8-5.5-12.4-2.6-2.5-2.9-2.5-24.7-3l-22.1-.5 6.1-6.7c6.8-7.5 7.7-9.7 6.8-16.3-1-6.1-5-9.5-11.5-9.5h-4.7l-12.5 12.7c-6.9 7.1-13.8 14.5-15.3 16.5l-2.8 3.8h-9.9c-5.5 0-9.9-.2-9.9-.5 0-.2 3.2-4.4 7.1-9.2 9.3-11.6 14.7-20.8 15.5-26.4.5-3.9.3-4.9-2-7.6-3.4-4-9.8-5.3-14.4-2.9-1.6.8-11.7 11.7-22.2 24.1L781.7 625h-7.4c-4.1 0-7.3-.3-7.1-.8.2-.4 5.1-7.8 11.1-16.4 20.4-29.8 22.1-33.5 17.8-39-3.7-4.7-17.1-9-42.5-13.9l-5.8-1.1 5.1-5.2 5.1-5.2 22.3 2.7c30.5 3.8 28.9 3.9 33.2-1.9 2.8-3.7 3.5-5.6 3.5-9.4 0-3.9-.4-5-3-7.1-2.9-2.5-11.3-4.9-21.5-6.2-8.5-1.1-9.6-1.4-8.8-2.9.4-.8 3.7-4.4 7.2-8.1l6.4-6.6 16.4 1.1c18.4 1.2 20.9.7 25.9-5.3 2.1-2.5 2.5-3.8 2.1-7-.8-6.1-5.2-9.8-13.2-11.2-2.2-.4-4.3-1-4.8-1.2-.4-.3 3-4.6 7.6-9.6 10.5-11.5 14.7-17.3 14.7-20.4 0-3.3-3.4-9.7-6.6-12.2-2.1-1.6-4.1-2.1-9.1-2.1h-6.4L811 448.1c-7.1 6.6-13.2 12.4-13.5 13-1.3 2-2.5.7-2.5-2.7 0-6.4-3.1-17.6-5.6-20.1-3.3-3.3-9.4-3.1-15 .4-5.9 3.8-6.4 5.4-5.4 16.4.5 5.2 1 14.7 1 21.2v11.8l-6.2 6.8c-3.5 3.8-6.6 6.9-6.9 7-.4.1-.9-4.3-1.3-9.7-1.4-19.1-4.3-30.7-8.5-33.9-.9-.7-3.7-1.3-6.3-1.3-3.8 0-5.5.6-9 3.3-4.1 3.2-4.3 3.6-4.2 8.3.1 4.4 3.7 43.7 4.9 52.6.5 3.3 0 4.2-4.6 9.3-2.9 3.1-5.5 5.2-5.9 4.8-.4-.4-1.7-6.4-3-13.3-3-16.5-7.6-35.3-9.6-39.3-5.5-10.7-10.2-9.5-40.3 10.7l-14.1 9.5v-12.7l16.8-14.5c9.2-8 19-16.8 21.7-19.6 4.6-4.7 5-5.6 4.9-9.7-.1-6-3.4-9.4-9.7-10.1-2.5-.3-5.6-.3-6.9 0-1.3.4-7.7 4.7-14.3 9.6l-12 9-.3-10.7-.3-10.6 14.6-14.6c14.2-14.2 14.5-14.6 14.5-18.8 0-7.9-4.2-12.2-12-12.2-2.8 0-10.3 4.5-13.5 8-1 1.1-2.2 2-2.7 2-.4 0-.8-6.8-.8-15 0-16.2-.5-18.4-5.4-22.9-3.8-3.5-12.7-4-17.7-1zm-34.6 158.1c5.1 3.4 13.4 9.2 18.5 13l9.2 6.8v12.7l-17 9.6c-9.4 5.4-17.4 9.6-17.8 9.6-.4-.1-3.2-2.9-6.3-6.3l-5.6-6.1 1.3-9c2.4-16.2 6.6-36.5 7.6-36.5.5 0 5 2.8 10.1 6.2zm96.5 9.5c1.7 8.7 3.6 19.5 4.3 24.1l1.3 8.3-4.2 4.2-4.2 4.2-12.7-6.4c-7-3.4-15.1-7.8-18-9.7L655 548v-6.4c0-6.3.1-6.4 4.3-9.8 4.7-3.9 29.8-20.8 30.8-20.8.4 0 2 7.1 3.7 15.7zm-27.1 62.4c14.2 7.8 27.5 15.1 29.5 16.3l3.8 2.1V674l-6.9 4.5c-11.9 7.7-48.9 28.5-50.7 28.5-3.7 0-39-19.5-52.1-28.8l-6.3-4.4v-65.6l16.8-10c14.2-8.5 39.2-23 39.9-23.2.1 0 11.8 6.4 26 14.1zm-107.4-8.2 4.2 3.9-4.8 4.4-4.7 4.4V625h-6.8c-6.6 0-6.8-.1-8.7-3.3-1-1.7-7-11-13.2-20.6-6.3-9.5-11.2-17.5-11-17.8.7-.7 32.8-6.1 37-6.2 3.1-.1 4.5.6 8 3.8zm185.5-.9c10.2 1.7 18.7 3.2 19 3.4.4.5-20.5 31.2-25.5 37.3-2.3 2.9-4.2 4.3-5.8 4.3-2.3 0-2.3-.2-2.8-13.3-.5-15.8-1.6-19.6-6.8-24.8l-4-4 2.3-2.9c1.3-1.6 2.9-2.9 3.6-2.9.8-.1 9.8 1.3 20 2.9zM554 671.3c0 14.2.3 16.8 1.9 20.1l2 3.8-4.7-.6c-6.8-1-38.6-6.8-39.1-7.2-.2-.1 4.5-7.5 10.4-16.3l10.8-16.1H554v16.3zm192.1-9.6c3.1 3.8 8.3 10.9 11.7 16l6.2 9.2-3.8 1c-3 .8-22.1 4.6-33.4 6.6-1.6.2-2.8.1-2.8-.2 0-.4 1.2-2 2.8-3.6 2.7-2.8 2.7-2.9 3-19.3l.3-16.4h10.5l5.5 6.7zm-147.3 57.2c4.8 2.6 12.6 6.9 17.5 9.5 4.8 2.6 8.7 5.1 8.7 5.5 0 .9-38 26.5-38.4 25.9-.1-.1-1.8-8.6-3.8-18.8l-3.7-18.5 4.7-4.2c2.6-2.3 5-4.2 5.5-4.3.4 0 4.7 2.2 9.5 4.9zm97.8 5.5c-.7 7.1-5.3 34.6-5.8 35.2-.2.2-6.2-3.5-13.4-8.2-7.1-4.7-15-9.7-17.6-11.2-2.7-1.5-4.8-3.2-4.8-3.8 0-.7 5.3-4.1 11.8-7.8 6.4-3.6 14.6-8.3 18.2-10.5l6.5-3.9 2.9 2.1c2.7 1.9 2.8 2.2 2.2 8.1z"/><path d="M635.5 579.6c-11.9 6.3-31.6 17.7-39 22.6-11.8 7.9-11.5 6.8-11.5 39.3 0 30.4.1 30.7 7.5 36.5 8.5 6.8 44.9 27 48.5 27 3.9 0 41.1-19.9 50.7-27.1 3.8-2.8 5.5-5 6.3-7.7.7-2.4 1-13.1.8-31.1l-.3-27.3-4.6-4.2c-2.5-2.2-9.3-6.9-15-10.3-11.1-6.5-34.1-18.9-36.8-19.8-.9-.3-3.9.7-6.6 2.1z"/></g></svg>